<svg version="1.1" xmlns="http://www.w3.org/2000/svg" xmlns:xlink="http://www.w3.org/1999/xlink" x="0px" y="0px"
    viewBox="0 0 50 38.7" style="enable-background:new 0 0 50 38.7;" xml:space="preserve">
    <style type="text/css">
        .st0{fill:#FFFFFF;}
    </style>
    <g>
        <path class="st0" d="M19.5,38.4c-0.8-0.1-1.6-0.1-2.5-0.3C16,38,15,37.7,13.9,37.5c-0.7-0.2-1.4-0.4-2.2-0.7
            c-1.1-0.4-2.1-0.7-3.1-1.3c-1.2-0.6-2.3-1.4-3.3-2.2c-1-0.7-1.8-1.6-2.4-2.7c-0.3-0.5-0.6-1.1-0.8-1.7c-0.2-0.8-0.4-1.6-0.5-2.4
            c-0.1-0.7,0-1.3-0.1-2c0-0.3-0.2-0.6-0.3-0.9c-0.3-0.9-0.5-1.8-0.7-2.7c-0.2-0.9-0.3-1.8-0.4-2.8C0,16.4-0.1,14.7,0.3,13
            c0.2-0.8,0.3-1.6,0.5-2.4C1,9.9,1.2,9.3,1.4,8.7c0.2-0.5,0.4-1,0.6-1.4C2.5,6.5,2.9,5.7,3.4,5c0.5-0.7,1-1.4,1.7-2
            C6.1,2,7.4,1.7,8.8,1.3c1-0.3,2-0.5,3.1-0.7c1-0.2,2-0.3,3-0.4c2-0.1,4-0.2,6-0.2c1.7,0,3.4,0.1,5.1,0.2c0.9,0.1,1.9,0.2,2.8,0.4
            c0.6,0.1,1.1,0.3,1.6,0.5c0.5,0.2,0.9,0.4,1.3,0.6c0.6,0.3,1.2,0.6,1.7,1c0.5,0.3,1,0.7,1.5,1.1c0.2,0.1,0.4,0.2,0.5-0.1
            c0.1-0.2,0.3-0.5,0.4-0.7c0.6-1,1.5-1.6,2.5-2c0.8-0.3,1.6-0.4,2.4-0.5c1.4,0,2.7,0.2,3.9,0.9c0.8,0.4,1.5,0.9,2.2,1.5
            c0.9,0.8,1.6,1.7,2.2,2.7c0.4,0.8,0.7,1.7,0.9,2.6c0.2,1.1,0.1,2.2-0.6,3.1c-0.4,0.6-1,1.1-1.6,1.4c-0.2,0.1-0.3,0.2,0,0.4
            c0.5,0.4,1,0.7,1.4,1.1c0.5,0.5,1,1.1,1,1.9c0,0.5,0,0.9,0,1.4c0,0.9-0.3,1.7-0.9,2.4c-0.3,0.4-0.7,0.6-1.1,0.9
            c-0.2,0.2-0.3,0.4-0.2,0.6c0.1,0.6,0.6,0.9,1,1.2c0.3,0.3,0.7,0.7,0.8,1.1c0.4,1.5-0.2,2.4-1.2,3.3c-0.3,0.3-0.3,0.3,0,0.6
            c0.1,0,0.1,0.1,0.2,0.1c0.8,0.6,1.1,1.4,0.9,2.3c-0.1,0.7-0.4,1.3-0.7,1.9c-0.5,0.8-1.2,1.5-2.2,1.5c-0.8,0-1.5,0-2.3-0.1
            c-0.8-0.1-1.5,0-2.1,0.3c-0.8,0.5-1.6,0.9-2.4,1.3c-0.7,0.3-1.3,0.6-2,0.9c-0.4,0.2-0.8,0.3-1.2,0.4c-0.5,0.2-1.1,0.3-1.6,0.5
            c-0.7,0.2-1.4,0.4-2.1,0.6c-0.2,0.1-0.5,0.1-0.7,0.1c-0.9,0.2-1.8,0.4-2.7,0.6c-1,0.2-2,0.3-2.9,0.3c-1.1,0.1-2.2,0.1-3.7,0.1
            C22,38.6,20.8,38.5,19.5,38.4z M27.9,37.1c1.2-0.1,2.4-0.3,3.6-0.5c0.7-0.1,1.4-0.4,2-0.6c0.6-0.2,1.1-0.3,1.7-0.5
            c0.6-0.2,1.1-0.4,1.7-0.6c0.6-0.3,1.3-0.5,1.9-0.8c0.8-0.4,1.7-0.8,2.5-1.3c0.9-0.5,1.9-0.9,3-0.7c0.6,0.1,1.3,0.1,1.9,0.2
            c0.5,0,0.9-0.2,1.2-0.6c0.5-0.7,0.7-1.4,0.7-2.2c0-0.5-0.3-0.7-0.7-0.9c-1.3-0.6-2.6-0.3-3.9-0.3c-0.4,0-0.8,0-1.2,0
            c-0.1,0-0.2-0.1-0.3-0.2c0.1-0.1,0.1-0.2,0.2-0.3c0.5-0.3,1.1-0.4,1.7-0.4c0.7-0.1,1.5-0.2,2.2-0.4c0.1,0,0.2-0.2,0.4-0.3
            c0.3-0.2,0.7-0.5,1-0.7c0.6-0.4,0.9-1.3,0.7-1.9c-0.1-0.2-0.3-0.4-0.5-0.6c-0.6-0.4-1-0.9-1.3-1.5c-0.3-0.8-0.2-1.6,0.7-2.1
            c1.1-0.6,1.4-1.6,1.5-2.8c0.1-1.2-0.4-2-1.3-2.6c-0.5-0.3-1-0.6-1.5-0.9c-0.8-0.5-1.6-0.9-2.4-1.4c-0.6-0.4-1.3-0.8-1.9-1.2
            c-0.9-0.5-1.7-1.1-2.5-1.7c-0.4-0.3-0.8-0.5-1.3-0.8c-0.2-0.1-0.4-0.1-0.6-0.1c-1.1-0.1-2.2,0-3.4,0.3c-0.8,0.2-1.7,0.3-2.5,0.5
            c-0.8,0.2-1.6,0.6-2.3,0.9c-0.6,0.3-1.2,0.6-1.8,0.9c-0.6,0.3-1.2,0.6-1.8,0.9c-0.3,0.2-0.7,0.3-1,0.4c-0.6,0.2-1.1,0.4-1.7,0.5
            c-0.8,0.2-1.6,0.4-2.4,0.6c-0.3,0.1-0.6,0.1-1,0.1c-0.2,0-0.5,0-0.5,0.3c0,0.3,0.3,0.3,0.5,0.3c0.8,0,1.7,0.9,1.8,1.7
            c0.2,1.1-0.8,1.6-1.5,1.7c-0.7,0.1-0.6,0-0.3,0.6c0.2,0.5,0.5,1,0.5,1.5c0,1.1-0.7,1.8-1.9,1.6c-0.5-0.1-0.8-0.3-1.1-0.6
            c-0.1-0.1-0.2-0.1-0.3-0.1c0,0.1,0,0.2,0,0.3c0.4,1.1,0.3,2.1,0.2,3.2c0,0.6,0,0.7,0.6,1c1.1,0.5,1.8,1.2,2.1,2.4
            c0.1,0.4,0.3,0.6,0.8,0.7c0.8,0.2,1.7,0.4,2.5,0.7c1.2,0.5,2.3,1.2,2.8,2.5c0.3,0.7,0.3,1.4,0,2.1c-0.3,0.5-0.5,1.1-0.9,1.6
            c-0.5,0.6-1,0.9-1.8,0.4c-0.9-0.6-1.7-1.1-2.5-1.8c-0.7-0.5-0.7-0.5-1.1,0.1c-0.3,0.5-0.7,1-1.2,1.3c-0.9,0.6-2.3,0.8-3.3,0.3
            c-0.6-0.3-1.2-0.5-1.7-0.9c-0.5-0.4-0.8-1-1.1-1.4c-0.1-0.2-0.3-0.3-0.6-0.4c-0.5-0.2-1-0.4-1.3-0.9c-0.4-0.7-0.1-1.7,0.7-2.1
            c0.5-0.2,0.7-1,0.4-1.5c-0.1-0.1-0.3-0.2-0.4-0.2C9.8,28,9.1,28,8.4,27.9c-0.7-0.1-1.3-0.4-2-0.6C6,27.2,5.6,27,5.3,26.9
            C4.6,26.6,4,26.2,3.4,26c-0.1-0.1-0.3-0.1-0.4-0.1c-0.1,0-0.1,0.3-0.1,0.4c0.1,1.8,0.6,3.4,1.8,4.7c0.7,0.7,1.4,1.4,2.2,2
            c0.7,0.5,1.4,0.9,2.1,1.3c0.6,0.3,1.3,0.6,2,0.9c0.9,0.3,1.8,0.6,2.7,0.9c0.6,0.2,1.2,0.3,1.7,0.4c1,0.2,1.9,0.4,2.9,0.5
            c1.7,0.2,3.4,0.3,5.1,0.4C24.9,37.4,26.4,37.2,27.9,37.1z M13.5,10.4c-0.6-0.1-1.3-0.2-1.9-0.3C10.8,10,10,9.7,9.2,9.6
            C8.7,9.5,8.2,9.5,7.6,9.5c-1.5,0-3.1,0-4.6,0c-0.4,0-0.7,0.2-0.8,0.6c-0.1,0.4-0.2,0.7-0.3,1.1c-0.1,0.4,0.1,0.4,0.4,0.4
            c1.3,0,2.5,0,3.8,0.1c0.9,0,1.9,0.1,2.8,0.2c1.4,0.2,2.8,0.4,4.2,0.6c0.7,0.1,1.3,0.1,2,0.1c1.5,0,3,0,4.5-0.1
            c0.9-0.1,1.8-0.4,2.7-0.6c0.5-0.1,1-0.3,1.5-0.5c0.7-0.3,1.5-0.6,2.2-0.9c0.9-0.4,1.7-0.9,2.6-1.3c0.8-0.4,1.6-0.7,2.4-1
            c0.8-0.2,1.7-0.3,2.5-0.5c1-0.3,2.1-0.3,3.1-0.3c0.1,0,0.2-0.1,0.2-0.1c0-0.1,0-0.2-0.1-0.2c-1.1-1-2.1-2.1-3.2-3
            c-0.7-0.6-1.5-0.9-2.3-1.4c-0.3-0.2-0.7-0.4-1.1-0.5c-0.3-0.1-0.7-0.2-1-0.2c-0.3,0-0.3,0.2-0.2,0.4c0.7,1.3-0.2,2.9-1.1,3.6
            c-0.7,0.5-1.4,0.9-2.1,1.2C24.9,7.5,24,7.7,23,7.7c-0.8,0-1.6,0.2-2.4,0.1c-0.9,0-1.7-0.1-2.6-0.3c-1.3-0.3-2.5-0.7-3.6-1.5
            c-1-0.7-1.7-1.5-2.1-2.6c-0.1-0.4-0.1-0.8-0.1-1.2c0-0.4-0.1-0.5-0.5-0.4C11.4,2,11.2,2,11,2c-0.9,0.2-1.7,0.4-2.6,0.7
            C7.7,2.9,6.9,3.2,6.3,3.6C5.8,3.9,5.3,4.3,5,4.8C4.2,5.8,3.5,7,3,8.2C2.8,8.6,2.8,8.7,3.3,8.7c1.6,0,3.2-0.1,4.8,0
            c0.7,0,1.5,0.2,2.2,0.3c0.9,0.2,1.8,0.4,2.8,0.6c0.8,0.1,1.6,0.1,2.4,0.2c0.9,0.1,1.9,0.1,2.8,0.2c0.1,0,0.3,0.2,0.4,0.3
            c-0.1,0.1-0.2,0.3-0.4,0.3c-0.3,0.1-0.6,0.1-1.1,0.1C16.1,10.6,14.8,10.5,13.5,10.4z M10.5,18c0.1,0.3,0.3,0.6,0.4,1
            c0,0.1-0.1,0.3-0.2,0.4c-0.1,0-0.3,0-0.4-0.1c-0.5-0.5-0.6-1.2-0.8-1.8c-0.4-1.4-0.3-2.7-0.3-4.1c0-0.3-0.1-0.4-0.4-0.4
            c-0.6,0-1.3-0.1-1.9-0.1c-0.2,0-0.4,0-0.4,0.3c0.1,1.1,0.2,2.2,0.4,3.3c0.1,0.5,0.2,0.9,0.4,1.3c0.3,0.5,0.3,1.1,0.2,1.6
            c0,0.2-0.3,0.5-0.4,0.5c-0.3,0-0.7,0-0.9-0.2C5.3,18.9,4.7,18,4.3,17c-0.2-0.7-0.5-1.3-0.6-2c-0.1-0.6-0.1-1.3-0.1-2
            c0-0.5-0.2-0.6-0.6-0.6c-0.4,0-0.7,0.1-1.1,0.2c-0.1,0-0.3,0.2-0.4,0.3c-0.2,1.5-0.5,2.9-0.3,4.4c0.1,1.3,0.3,2.6,0.6,3.9
            c0.2,1,0.5,2,0.8,3c0.2,0.5,0.6,0.7,1,0.9c0.7,0.4,1.4,0.7,2.2,1c0.5,0.2,1,0.3,1.6,0.5c1.3,0.4,2.6,0.4,3.9,0.4
            c0.7,0,1.4,0,2.1-0.1c1-0.3,1.7-0.8,2-1.9c0.3-1,0.5-2.1,0.3-3.2c-0.1-0.6-0.2-1.2-0.3-1.8c-0.1-0.5-0.3-0.9-0.5-1.4
            c-0.2-0.5-0.3-1-0.6-1.4c-0.6-1.1-1.1-2.2-1.7-3.3c-0.1-0.2-0.2-0.4-0.3-0.5c-0.4-0.5-1.1-0.3-1.6-0.4c-0.7-0.1-0.7,0-0.7,0.6
            c0,0.4,0,0.7,0,1.1C10,16,10.2,17,10.5,18z M37.8,2.5c-0.5,0.3-0.8,0.8-1.1,1.3c-0.5,1-0.5,1,0.3,1.8c0.1,0.1,0.1,0.1,0.2,0.2
            C37.4,6,37.5,6,37.7,5.7c0.1-0.3,0.6-0.6,0.9-0.6c0.4,0,0.9,0.4,1,0.7c0.1,0.4,0,0.8-0.3,1.1c-0.2,0.1-0.4,0.2-0.6,0.3
            c-0.2,0.1-0.2,0.3-0.1,0.4c0.3,0.2,0.7,0.4,1,0.6c0,0,0.1,0,0.1,0c0.4,0,1.1-0.9,1-1.3c-0.1-0.5-0.2-1-0.2-1.5
            c0-0.2,0.1-0.5,0.3-0.5c0.2,0,0.4,0.1,0.6,0.2c0.5,0.5,1,1,1.5,1.4c0.1,0.1,0.3,0.2,0.4,0.2c0.3,0,0.6,0,0.9,0
            c1.2,0,2.2,0.4,3,1.2c0.8,0.8,0.8,2,0.5,2.7c-0.1,0.2-0.3,0.2-0.5,0.3c0,0-0.2-0.3-0.2-0.4c0-0.3,0-0.7,0-1c0-0.8-0.5-1.1-1.1-1.5
            c-1.1-0.6-2.3-0.5-3.4-0.3c-0.6,0.1-1.1,0.5-1.6,0.8c-0.2,0.1-0.2,0.4,0,0.6c0.3,0.2,0.5,0.3,0.8,0.5c0.1,0,0.4,0,0.4-0.1
            c0.3-0.5,1.6-1,2.2-0.5c0.5,0.3,0.9,0.6,0.9,1.2c0,0.4-0.2,0.6-0.5,0.8c-0.3,0.2-0.3,0.4,0,0.6c1.2,0.7,2.7,0.5,3.5-0.7
            c0.6-0.8,0.7-1.8,0.4-2.8C48.4,7.5,48.2,7,48,6.5c-0.4-1-1-1.8-1.8-2.5c-0.7-0.8-1.6-1.4-2.6-1.8c-0.8-0.3-1.7-0.6-2.6-0.5
            C39.9,1.6,38.8,1.9,37.8,2.5z M12.3,32.1c0.4,1.1,1.1,2,2.3,2.4c0.6,0.2,1.1,0.3,1.7,0.3c1.1-0.1,1.8-0.7,2.2-1.7
            c0.2-0.3-0.1-0.6-0.5-0.8c-0.8-0.3-1.6-0.4-2.5-0.4c-0.7-0.1-1.2-0.6-1.5-1.2c-0.3-0.5-0.3-0.9,0-1.3c0.3-0.4,0.7-0.7,1.2-0.9
            c1-0.4,1.9-0.4,2.9-0.4c0.3,0,0.4-0.1,0.3-0.4c-0.2-0.8-0.7-1.3-1.3-1.7c-0.3-0.1-0.6-0.3-0.8-0.3c-0.2,0.1-0.4,0.4-0.6,0.6
            c-0.8,1-1.9,1.5-3.1,1.6c-0.6,0.1-0.7,0.2-0.7,0.8c0,0.2,0,0.3,0,0.5C11.9,30.3,11.9,31.2,12.3,32.1z M14.3,4.9
            c0.6,0.5,1.4,0.8,2.1,1.2c0.6,0.3,1.2,0.5,1.8,0.6c0.6,0.1,1.2,0.1,1.7,0.1c0.1,0,0.3-0.1,0.4-0.2c0.2-0.2,0.3-0.4,0.5-0.5
            c0.5-0.6,0.4-1,0.1-1.7c-0.3-0.6-0.4-1.3-0.6-1.9c0,0,0,0,0,0c-0.1-1-0.2-1.2-1.2-1.1c-0.3,0-0.6,0-0.9,0c-0.3,0-0.3,0.1-0.3,0.4
            c0,0.3,0,0.6,0,0.9c-0.1,0.4-0.4,0.7-0.8,0.7c-1,0-1.5-0.6-1.9-1.3c-0.3-0.4-0.4-0.5-0.9-0.4c-0.2,0-0.5,0.1-0.7,0.1
            c-0.4,0-0.6,0.2-0.5,0.6c0,0.1,0,0.1,0,0.2C13,3.4,13.5,4.3,14.3,4.9z M16.5,29.1c-0.4,0.1-0.8,0.2-1.2,0.3
            c-0.3,0.1-0.5,0.4-0.5,0.8c0.1,0.3,0.4,0.7,0.7,0.8c0.2,0,0.3,0.1,0.5,0.1c0.9,0,1.8,0.3,2.6,0.7c1.2,0.6,2.3,1.4,3.3,2.2
            c0.4,0.3,0.8,0.5,1.2,0.7c0.3,0.2,0.6,0,0.8-0.3c0.3-0.5,0.6-1,0.7-1.6c0.2-0.8-0.2-1.8-1-2.3c-0.9-0.6-1.9-1-3-1.1
            c-0.8-0.1-1.7-0.3-2.5-0.4c0,0,0,0.1,0,0.1C17.6,29,17,29,16.5,29.1z M28,1.9c0-0.1-0.1-0.2-0.2-0.2c-0.4-0.1-0.8-0.2-1.2-0.2
            c-0.1,0-0.2,0.3-0.3,0.4c0,0.5-0.1,0.9-0.4,1.2c-0.4,0.4-0.7,0.4-1.2,0.1c-0.7-0.4-1.1-1.1-1.5-1.8c-0.1-0.1-0.2-0.2-0.3-0.2
            c-0.5,0-1-0.1-1.4-0.1c-0.3,0-0.4,0.1-0.4,0.4c0,0.9,0.4,1.8,0.7,2.6c0.4,1.1,1.3,1.7,2,2.3c0.1,0.1,0.5,0.1,0.7,0
            c0.6-0.2,1.2-0.4,1.8-0.6c1.1-0.4,2.1-1.6,2.1-2.8C28.2,2.9,28.1,2.4,28,1.9z M4.6,15.5c0.3,1.2,0.8,2.4,1.7,3.3
            c0.1,0.1,0.2,0.1,0.3,0.1c0-0.1,0.1-0.2,0.1-0.3c-0.1-0.4-0.3-0.8-0.3-1.2c-0.2-0.8-0.3-1.5-0.4-2.3c-0.1-0.7-0.1-1.3-0.1-2
            c0-0.5-0.8-0.9-1.2-0.6c-0.2,0.1-0.2,0.5-0.3,0.6C4.4,14,4.4,14.8,4.6,15.5z M13.8,13.5c-0.1,0-0.2,0-0.2,0.1c0,0.1,0,0.2,0.1,0.3
            c0.3,0.5,0.6,1,0.9,1.6c0.2,0.3,0.3,0.6,0.4,0.9c0.2,0.5,1,0.5,1.3,0.1c0.3-0.4,0.4-0.9,0.4-1.4c0-0.3,0-0.6-0.1-0.9
            c0-0.4-0.2-0.6-0.6-0.6c-0.2,0-0.5,0-0.7,0c0,0,0,0,0-0.1C14.7,13.5,14.2,13.5,13.8,13.5z M17.2,16.5c-0.2,0.6-0.7,0.9-1.3,1.1
            c-0.1,0-0.2,0.2-0.2,0.2c0.1,0.3,0.2,0.5,0.4,0.7c0.1,0.1,0.4,0.1,0.5,0c0.5-0.2,0.9-0.6,1.2-1.1c0.3-0.6,0.5-1.2,0.4-1.8
            c0-0.5,0-1.1,0-1.6c0-0.2-0.1-0.4-0.4-0.4c-0.3,0-0.3,0.2-0.3,0.4c0,0.3,0,0.6,0,0.8c0,0,0.1,0,0.1,0
            C17.4,15.4,17.3,15.9,17.2,16.5z M18.9,19.7c-0.1-0.4-0.2-0.8-0.4-1.2c-0.1-0.2-0.3-0.2-0.5-0.1c-0.3,0.2-0.6,0.4-0.8,0.6
            c-0.1,0.2-0.2,0.5-0.1,0.7c0.1,0.5,0.5,0.7,1,0.7C18.7,20.4,18.9,20.3,18.9,19.7z M20.3,16.2c0.1-0.3,0-0.6-0.3-0.9
            c-0.2-0.2-0.4-0.4-0.8-0.3c-0.1,0-0.2,0.1-0.3,0.2c0,0.3,0,0.7,0,1.1c0,0.4,0.3,0.4,0.5,0.4C19.9,16.7,20.2,16.6,20.3,16.2z
            M24.9,1.3c-0.2,0-0.4,0-0.6,0.1c0.1,0.2,0.2,0.4,0.3,0.6c0,0.1,0.1,0.2,0.2,0.2c0.2,0.1,0.4,0.2,0.6,0.2c0.1,0,0.2-0.3,0.2-0.5
            C25.4,1.4,25.4,1.3,24.9,1.3z M44.2,10c0-0.2-0.4-0.5-0.7-0.4c-0.1,0-0.3,0-0.4,0.1c-0.1,0.1-0.3,0.3-0.2,0.4
            c0,0.1,0.2,0.2,0.3,0.3c0.1,0.1,0.2,0,0.3,0.1C43.9,10.4,44.2,10.3,44.2,10z M16,1.4c0,0.2,0.1,0.3,0.2,0.5c0,0,0.1,0,0.1,0.1
            c0.2,0.2,0.4,0.5,0.7,0.3c0.1-0.1,0.1-0.5,0-0.8c0-0.1-0.3-0.2-0.5-0.2C16.3,1.3,16,1.4,16,1.4z M22.5,6.6
            c-0.2-0.1-0.4-0.4-0.6-0.4c-0.2,0-0.4,0.3-0.6,0.4c0.2,0.1,0.4,0.2,0.6,0.3C22.2,6.8,22.3,6.7,22.5,6.6z M10.9,30.6
            c-0.1,0.2-0.3,0.4-0.3,0.5c0,0.2,0.2,0.3,0.3,0.5c0.1-0.1,0.2-0.3,0.2-0.5C11.1,30.9,11,30.7,10.9,30.6z"/>
        <path class="st0" d="M35.2,26.7c0-1.3-0.6-2.5-1.9-3.2c-1-0.6-2-0.7-3.1-0.3c-0.1,0-0.2,0.1-0.3,0.1c-1.1,0-2.4,1.3-2.7,2.3
            c-0.4,1.4,0.5,3.4,1.7,4.2c0.7,0.4,1.5,0.8,2.3,0.9c1,0.2,1.8-0.3,2.6-0.8c0,0,0,0,0.1-0.1C35.1,28.9,35.2,28.3,35.2,26.7z"/>
        <path class="st0" d="M31.1,15c-0.2-0.1-0.4-0.4-0.3-0.4c0.1-0.2,0.3-0.4,0.5-0.4c0.4-0.1,0.8-0.1,1.2-0.2c1-0.2,2.1-0.4,3.1-0.5
            c0.6-0.1,1.2-0.2,1.8-0.2c0.2,0,0.5,0.1,0.6,0.3c0.1,0.1,0,0.4,0,0.5c0,0.1-0.1,0.2-0.2,0.3c-0.7,1.1-1.8,1.8-3.3,1.8
            C33.3,16.1,32.2,15.6,31.1,15z M36.4,14.6c0.1-0.1,0.1-0.2,0.1-0.2c-0.1,0-0.2-0.1-0.2-0.1c-0.2,0-0.5,0.1-0.7,0.1
            c-0.7,0.1-1.3,0.2-2,0.3c-0.1,0-0.2,0.1-0.3,0.1c0.1,0.1,0.1,0.2,0.2,0.3c0.4,0.1,0.7,0.2,1.1,0.3C35.3,15.2,35.9,15,36.4,14.6z"
            />
        <path class="st0" d="M37.3,19.1c0.1,1.3,0.3,2.3,1.2,3.1c0.6,0.6,1.5,0.8,2.4,0.3c0.5-0.3,1-0.6,1.7-0.5c0.1,0,0.3-0.1,0.4-0.2
            c-0.1-0.1-0.1-0.3-0.2-0.4c-0.3-0.3-0.7-0.3-1.1-0.1c-0.5,0.2-1.1,0.4-1.6,0.5c-0.7,0.1-1.2-0.4-1.4-1c-0.2-0.7-0.5-1.4-0.3-2.2
            c0.1-0.6,0.3-1.1,0.8-1.4c0.2-0.1,0.5-0.1,0.8-0.2c0.2-0.1,0.5-0.1,0.7-0.3c0.2-0.2,0.1-0.5-0.2-0.5c-1-0.2-2.6,0.7-2.8,1.7
            C37.5,18.5,37.4,18.9,37.3,19.1z"/>
        <path class="st0" d="M30.7,11.9c0.1,0.1,0.2,0.3,0.3,0.3c0.1,0,0.3,0,0.4,0c0.5-0.3,0.9-0.6,1.5-0.6c0.4,0,0.7-0.2,1.1-0.2
            c1.1,0.1,2.2,0.2,3.1,0.8c0.1,0.1,0.4,0,0.5-0.1c0.2-0.2,0.1-0.4-0.2-0.5c-1.3-0.8-2.8-1-4.3-0.8c-0.8,0.1-1.5,0.5-2.2,0.9
            C30.9,11.7,30.8,11.8,30.7,11.9z"/>
        <path class="st0" d="M42.5,27.1c0.3-0.2,0.6-0.3,0.8-0.5c0.4-0.3,0.8-0.8,1.3-1c0.5-0.3,1-0.4,1.6-0.6c0.3-0.1,0.6-0.1,0.5-0.5
            c-0.1-0.3-0.4-0.5-0.7-0.3c-0.7,0.3-1.4,0.6-2,1.1c-0.6,0.4-1.1,1-1.6,1.5c-0.1,0.1-0.1,0.2-0.1,0.2C42.2,27,42.3,27.1,42.5,27.1z
            "/>
        <path class="st0" d="M9.4,25.7c0.6,0,1.2,0,1.7-0.1c0.9-0.2,1.8-0.4,2.4-1.1c0.4-0.4,0.7-0.9,0.7-1.5c0-1-0.2-2-0.7-2.9
            c-0.5-0.9-0.8-1.9-1.3-2.9c-0.1-0.3-0.2-0.6-0.4-0.8c-0.1-0.2-0.4-0.2-0.6-0.3c0,0.2-0.2,0.5-0.1,0.6c0.3,0.8,0.7,1.7,1.1,2.5
            c0.3,0.6,0.7,1.3,0.9,1.9c0.2,0.5,0.2,1.1,0.2,1.7c0,0.5-0.1,0.9-0.5,1.3c-0.5,0.4-1,0.6-1.6,0.7c-1.3,0.1-2.7,0.1-4,0
            c-0.6,0-1.3-0.3-1.9-0.6c-0.5-0.2-0.9-0.5-1.3-0.8c-0.3-0.2-0.5-0.6-0.7-0.9c-0.1-0.2-0.2-0.4-0.3-0.5c-0.1-0.1-0.3-0.1-0.4-0.2
            c0,0.2-0.2,0.3-0.1,0.4c0.1,0.4,0.3,0.8,0.5,1c0.6,0.6,1.2,1.1,1.8,1.5c0.4,0.3,1,0.4,1.5,0.5C7.3,25.7,8.3,25.8,9.4,25.7z"/>
        <path class="st0" d="M42.4,3.6c0,0.9,1.2,1.8,1.9,1.4c0.4-0.2,0.5-0.6,0.3-0.9c-0.3-0.6-0.7-1-1.3-1.2C42.9,2.7,42.4,3.1,42.4,3.6
            z"/>
    </g>
</svg>