<?xml version="1.0" encoding="utf-8"?>
<svg version="1.1" xmlns="http://www.w3.org/2000/svg" xmlns:xlink="http://www.w3.org/1999/xlink" x="0px" y="0px"
	 viewBox="0 0 1933.8 1495.3" style="enable-background:new 0 0 1933.8 1495.3;" xml:space="preserve">
<style type="text/css">
	.st0{fill:#FFFFFF;}
</style>
<g>
	<g>
		<path class="st0" d="M1049.2,1495.3c-58-2.2-100-2.8-141.8-5.7c-38.1-2.7-76.3-6.6-114-12.6c-35.2-5.6-69.9-14.9-104.8-22.3
			c-8.8-1.9-18-1.6-26.6-4c-27.3-7.5-54.5-15.7-81.6-23.9c-20.5-6.2-41.1-12.4-61.4-19.3c-15.3-5.2-30.5-10.8-45.3-17.3
			c-26.3-11.6-52.7-23.2-78.2-36.3c-30.9-15.9-61.3-32.9-91.3-50.4c-26.1-15.3-53.1-17.3-82.6-13.3c-29.4,4-59.5,6.6-89.1,5.1
			c-39.2-1.9-66.6-26.9-84.4-59.3c-12.6-22.8-22.8-48.8-26.3-74.4c-4.8-34.9,3.4-68.4,36.1-90.2c2.2-1.5,4.3-3.2,6.4-4.8
			c12.8-9.4,12.1-11.3-0.4-21.5c-41.1-33.7-63.2-68.3-47.1-127.4c4.3-16,19.2-30.5,32.2-42.4c15.2-14,32.4-25.5,38-47
			c2.7-10.5,0.3-17.9-9.3-24.7c-15.4-10.9-31.2-22.1-43.6-36c-23.2-25.9-33.7-57.5-33.5-92.4c0.1-17.6-0.9-35.1-0.3-52.7
			C1.1,592,18.1,568.9,38.3,549c16.4-16.2,35.9-29.3,54.3-43.4c9-6.9,5.8-11.4-1.9-15.4c-25.5-13.5-47.2-31.3-62.7-55.7
			C4.2,397-2.3,355.6,6.4,312.9c7-34.4,18.4-67.6,35.5-98.9c21.9-40.2,48.9-76.6,83.6-106c25.9-22,53.9-42.6,83.9-58.4
			c46.3-24.3,96.4-35.2,149.8-33.4c32.3,1.1,62.8,7.7,92.4,18c40.6,14.1,76.2,36.3,97.7,75.9c5.1,9.3,10.2,18.6,15.3,27.8
			c5.3,9.6,13,7.2,19.5,2.7c19.9-13.8,38.7-29.3,59.2-42.3c21.2-13.5,43.6-25.3,65.9-36.9c16.5-8.5,33.4-16.6,50.8-22.8
			c20.6-7.3,41.7-14,63.1-17.8c36.3-6.4,72.8-12.6,109.5-14.8c65.4-3.8,131.1-6.3,196.6-6.1c77.9,0.3,155.8,2.9,233.6,7
			c38.3,2,76.6,8.2,114.5,15.1c39.7,7.2,79.7,14.8,118.1,26.9c50.7,16,103.8,30,144.5,66.2c24.7,22,45.1,49.7,64,77.2
			c19.3,28.1,35.2,58.7,51.1,88.9c9.4,17.8,16.4,36.9,23.6,55.8c8.8,23.2,18.4,46.3,24.5,70.2c7.9,31.1,12.3,63,18.9,94.4
			c14.1,66.8,13.4,134.4,9.9,201.9c-1.9,36-7.3,72.1-14.5,107.5c-7.2,35.3-18.2,69.8-28.1,104.5c-3.3,11.4-10.8,22.1-11.9,33.5
			c-2.5,25.9,0.2,52.3-3.5,78c-4.6,31.9-11.6,63.8-21,94.6c-6.9,22.6-17.7,44.4-29.9,64.8c-24.4,40.9-56,76.6-94.3,104.6
			c-41.4,30.3-84,59.7-129.1,83.9c-38.1,20.5-80.2,33.8-121.1,48.9c-27.2,10.1-55,19.2-83.2,26.1c-40.2,9.9-80.7,18.6-121.5,25.5
			c-31.4,5.3-63.4,7.6-95.2,10.2C1130.1,1489.8,1081.7,1493,1049.2,1495.3z M1031,1450.1c66.5-5.7,131.8-10.4,197-17.4
			c37.9-4,75.5-10.8,113-17.8c22.8-4.3,45.4-10.2,67.5-17.2c34.7-11,69.2-22.7,103.2-35.6c26.5-10.1,53-20.8,77.9-34.1
			c28.2-15.1,56.3-31.5,81.6-51.1c30.3-23.5,60.1-48.7,85.5-77.2c45.7-51.5,65.5-114.6,69.3-182.9c0.3-5.4-1.2-14.2-4.5-15.7
			c-4.5-2.1-12,0.1-17.3,2.6c-24.6,11.4-48.7,23.9-73.4,35.2c-14.1,6.4-28.7,11.8-43.5,16.5c-25.5,8-50.9,17.5-77,22
			c-28.1,4.8-57,4.3-85.5,6.8c-5.3,0.5-12.7,3.2-15.1,7.2c-10.2,17.5-0.6,47.1,17.2,56.5c28.3,15,40.2,53,25.2,80.7
			c-11,20.1-29.4,29.2-50.3,35.9c-8,2.5-16,8.4-21.5,14.9c-15.3,18.1-26.7,40.3-44.5,55.1c-18.6,15.5-42.3,25.1-64.5,35.8
			c-38.1,18.4-93.7,11.9-128.1-12.5c-19.2-13.6-33.6-30.5-45.9-50.4c-16-25.8-17.8-24.6-43-5.7c-31.6,23.6-63.9,46.5-97,68
			c-31.3,20.3-51.1,9.1-69.9-13.5c-14.7-17.7-24.1-40.2-34.4-61.3c-12.5-25.8-12.5-53.1-1.8-79.3c20.4-49.7,62.5-76.6,109.4-95.4
			c30.5-12.2,62.9-20.3,95.2-26.8c17.8-3.6,25.7-12,29.7-28.1c11.4-45.3,41.2-74.6,82.9-92.9c22.3-9.8,23.5-14.1,21.7-37.5
			c-3.2-41.7-6.7-83.7,7.2-124.6c1.1-3.3-0.2-7.5-0.4-11.3c-3.8,1.1-8.4,1.3-11.3,3.6c-13.5,10.2-26,21.1-44.3,23.2
			c-45.2,5.1-73.7-21.7-74-63.2c-0.1-19.8,10.8-40.5,19.8-59.4c10.9-22.9,12.3-21.5-13.4-24c-29.2-2.8-65.8-24.4-59.6-66.4
			c4.7-31.9,36.7-65.5,68.9-67c8-0.4,17.9,1,18.1-11.7c0.2-13.6-10.2-11.1-18.5-12c-12.5-1.3-25.3-2.1-37.5-4.7
			c-31.3-6.8-62.4-14.1-93.4-22.1c-22-5.7-43.9-12.4-65.5-19.6c-13.1-4.4-25.8-10.2-38.3-16.3c-23.4-11.5-46.5-23.9-69.8-35.6
			c-23.3-11.7-46.4-23.9-70.2-34.3c-29.8-13.1-59.7-27.1-90.8-36.2c-30.9-9.1-63.6-11.7-95.2-18.8c-42.9-9.7-86.2-12.3-129.9-10
			c-7.5,0.4-15.9,0.9-22.3,4.3c-16.9,9.1-33.1,19.6-49.3,30.1c-32.9,21.3-65.5,43.1-98.4,64.3c-24.5,15.9-49.1,31.7-74.1,46.7
			c-30.4,18.3-61.2,35.9-91.9,53.5c-19.8,11.4-41.2,20.6-59.5,34c-33.7,24.7-53.5,55.4-50.3,101.6c3.2,45.9,15.8,81.9,56.6,107
			c35.8,22,40.1,49.9,27.7,82.4c-9.5,25-28.6,43.6-49.9,59.9c-7.5,5.8-15.4,13.9-18.2,22.6c-8.7,26.5,3.5,58.7,26.1,75.3
			c13.1,9.6,26.3,19.1,39.4,28.7c4.8,3.5,8.8,9.6,14,10.6c28.6,5.5,57.3,11.7,86.2,13.9c23.7,1.8,46,6.1,67,16.7
			c3.9,2,6.1,7.5,9,11.4c-4,2.3-7.9,6.3-12,6.4c-15,0.3-29.9-1-44.9-1.1c-51.2-0.4-102.9-10.1-152.5,12.7
			c-15.1,6.9-25.7,16.6-25.9,34.4c-0.4,31.9,9,61.1,28.4,86.4c11.9,15.5,28,24.9,48.3,23.5c24.5-1.6,49.4-2,73.4-6.6
			c42.9-8.1,80.1,4.1,116.5,25.3c31.1,18.2,63.1,35,95.4,51c24,11.9,48.8,22.1,73.7,32.1c21.8,8.8,43.9,16.8,66.2,24
			c21.7,7,43.9,12.5,65.8,18.7c26.1,7.3,51.8,16.9,78.4,21.4c46.4,7.9,93.2,13.7,140.1,18.7C913.7,1440.4,972.7,1444.9,1031,1450.1z
			 M1263.9,413c-16-0.9-28.8-0.6-41.1-2.9c-5.4-1-9.6-7.7-14.4-11.8c5.4-3.8,10.4-10.3,16.2-10.9c36-3.9,72.1-6.9,108.3-9.6
			c31.5-2.4,63.4-1.9,94.6-6.5c36.1-5.4,71.5-15.6,107.5-22.7c28-5.5,56.2-12.5,84.5-13.3c62.2-1.7,124.5-0.3,186.7,0.6
			c18.1,0.3,20.1-1.7,13.2-18.6c-19.5-48.1-45.9-92.4-77.4-133.3c-13.9-18-31.6-35-51.1-46.2c-25.2-14.5-53.5-24.4-81.4-33.2
			c-32.9-10.4-66.9-17.6-100.4-26c-8.7-2.2-17.7-3-26.4-5.2c-14.3-3.7-17.5-1-18.3,14c-0.9,15.5-0.2,31.9-5,46.3
			c-14.5,43.2-44.7,74.9-81.7,100.2c-42.7,29.2-91.9,43.9-141,56.7c-32.2,8.4-66.3,11.5-99.7,12.7c-31,1.1-62.2-3.8-93.3-5.3
			c-36.1-1.7-71.7-8-104.7-21.2c-29.2-11.7-57.3-27.7-83-45.9c-37.4-26.4-70.1-90.5-44.5-139.3c3-5.7,3.7-15.3-6.7-14.3
			c-13,1.3-26.2,4.4-38.4,9c-14.5,5.4-28.6,12.5-42.1,20.1c-30,16.9-62.4,31.1-88.6,52.9c-43.6,36.2-83.2,77.4-124.3,116.7
			c-2.1,2-4.1,6.2-3.4,8.6c0.7,2.2,4.9,4.8,7.6,4.8c40.3-0.1,80.2,2,119.6,12.2c31.6,8.2,64.6,11.5,95.7,21
			c31.5,9.6,62.1,22.9,92,36.9c34.5,16.1,67.4,35.4,101.7,51.8c28,13.3,56.7,25.1,85.7,36.1c19.4,7.3,39.5,12.8,59.7,17.6
			c34.7,8.2,69.3,19.4,104.5,21.9c57.7,4.1,115.8,2.8,173.8,2.7c25.9,0,52-1.1,77.7-4.2c54.3-6.6,108.4-15.7,162.7-22.4
			c35.6-4.4,71.5-7.7,107.3-9.3c49.1-2.2,98.3-2.9,147.4-3c13.7,0,18.7-2,15.9-15.7c-3-14.5-9.7-28.2-12.5-42.7
			c-3.4-17.7-13.2-24.7-30.4-24.8c-59.3-0.4-118.6-1.6-177.9-1.5c-20.6,0-41.5,1-61.6,4.8c-30.1,5.8-59.6,15.3-89.6,21.6
			c-24.6,5.2-49.5,9.6-74.5,11.7C1362.2,407.9,1311.3,410.1,1263.9,413z M1544.4,576c0-14.3,0-28.7,0-43c0-25.5-0.1-26.9-25.3-24.6
			c-21.1,1.9-45-4.4-61.8,15.1c-5.2,6-9.8,12.6-13.5,19.6c-22.6,42.2-45.4,84.4-67,127.2c-8.9,17.6-15.5,36.5-22.4,55
			c-6.4,17.3-13.3,34.7-17.5,52.7c-5.5,23.2-8.4,47.1-12.6,70.6c-7.6,42-0.6,82.5,11.7,122.8c12.3,40.2,42,62.7,79.1,72.9
			c25.4,7,53.6,6.4,80.4,5.3c50.6-2.1,101.8,0.5,150.9-16.9c19.9-7.1,41.1-10.9,60.5-19.1c28.5-12,56.3-25.8,83.5-40.5
			c15.7-8.4,34.3-15.1,40.2-34.9c11.4-38.3,24.7-76.3,32.6-115.4c10-49.3,17-99.4,22.3-149.5c6-57-2.4-113.6-12-169.8
			c-0.8-5-8.2-11.2-13.6-12.6c-13.4-3.5-27.5-4.7-41.4-6.5c-17.8-2.2-23.6,3.3-24.2,21.3c-0.7,25.3,1.3,51.1-3.5,75.7
			c-5,26.2-16.8,51.1-25.1,76.7c-12.7,39.6-35.9,72.6-66.7,99.4c-8.5,7.4-24.5,9.2-36.6,8.2c-6.5-0.5-16.3-11.8-17.4-19.3
			c-3-21-1.9-41.9,8.1-62.3c7.9-16.2,14.5-33.9,17-51.7c6.1-42,9.6-84.4,14.1-126.7c1.3-12.3-7.1-14-15.9-13.5
			c-24.9,1.5-49.7,4-74.6,5.4c-11.5,0.6-16.1,6.4-16.4,17c-1.6,53,2.7,106-11.8,158.6c-7.1,25.7-13.9,50.1-31.4,70.4
			c-2.9,3.4-11.5,6.3-14,4.5c-3.8-2.7-7.4-10.4-6.2-14.6c3.7-12.9,10.6-24.8,14.7-37.7C1541.2,657,1548,617.1,1544.4,576z
			 M344.9,64.5c-34.2-4.2-68.4,6.5-101.2,20c-38.1,15.7-71,40.2-99.9,69.5c-28.4,28.8-53.2,60.3-67.8,98.6
			c-6.7,17.6-12.2,35.5-18.8,53.1c-14.6,38.7-7.6,75.9,13.8,108.7c30.8,47.3,85.3,57.5,133.4,28.9c11.3-6.7,11.4-17.1,0.2-23.8
			c-11.8-7.1-17.9-17.6-18.7-31.2c-1.4-25.5,16-35.6,34.9-48c24.8-16.2,71.7,0.5,84.7,21.1c2.3,3.7,11.9,6.4,16,4.7
			c10.6-4.5,20.1-11.5,29.8-17.9c9.2-6,11-17.6,1.8-22.9c-19.6-11.4-39.5-26.1-60.9-29.5c-44.2-6.9-89.7-9.5-131.6,12.7
			c-22.7,12-42.6,26.9-41.8,56.4c0.4,13.3,2.5,26.6,1.7,39.7c-0.4,5.9-7.5,16.7-9.1,16.3c-7.8-2.1-18.8-5.6-21.3-11.6
			c-10.7-26.4-12.5-74.5,19.7-104.5c33.3-31.1,72.2-47,117.8-46.6c11,0.1,22.1,0.8,33-0.3c5.8-0.6,12.5-2.9,16.7-6.8
			c19.1-18,37-37.4,56.4-55.1c5.7-5.2,16.2-10.2,22.2-8.3c5.1,1.6,10.1,13.6,9.7,20.6c-1,19.5-4.3,38.9-7.7,58.1
			c-2.4,13.4,25.3,49.7,39.1,49.9c1.3,0,2.9,0.1,3.9-0.6c12.9-8.1,26.2-15.5,38.2-24.7c6.2-4.7,4.9-10.7-3.3-14.4
			c-7.7-3.5-15.3-7.7-22-12.9c-11.9-9.2-15.9-27-10.7-41.7c4.5-12.6,23.2-25.9,37.5-26.6c11.8-0.6,31.6,11.9,36.2,22.9
			c5.7,13.7,9.1,14.3,20,3.6c2.6-2.6,5.2-5.1,7.8-7.8c29.8-31.1,31.5-32.1,11.1-69.8c-10.1-18.7-25.2-37.8-43-48.6
			C434.9,73.2,392.5,61.3,344.9,64.5z M1473.6,1132.9c0-6.3,0-12.7,0-19c0-24.6-2.7-28.5-27.4-30.5c-49.3-4-91.1-21.6-121.7-61.9
			c-6.8-8.9-13.5-22.1-22.4-24.1c-9.6-2.2-22.5,4.8-32.4,10.6c-25.8,15-45.2,35.7-51.4,66.2c-1.9,9.5,1.3,14.4,11.8,14.4
			c38.6-0.2,76.9,0.7,113.8,14.8c19.2,7.3,35.3,17.7,47.3,34.7c11.8,16.8,11.5,32.8,1.7,50.8c-13,23.9-30.6,43.2-57.6,45.6
			c-32.8,2.9-65,5.7-96.2,17.4c-14.6,5.4-23.6,16.4-17.6,29.9c15.5,35.1,42.7,59.6,83.4,63.9c22.1,2.4,42.7-3.2,64.1-10.1
			c47.7-15.4,73.9-49.2,90.2-93.5C1472.1,1206.7,1474.9,1170,1473.6,1132.9z M1430.4,92.4c0-2.3-0.3-4.7,0-7
			c2.3-15.9-4.5-22.5-20.6-22.1c-9.2,0.2-18.5-1.9-27.6-3.7c-18.6-3.7-24.4,0.3-34.6,16.6c-16.9,27.1-36.7,51.3-73.5,49.7
			c-16.8-0.7-29.2-10.1-31.5-26.5c-1.7-12-0.8-24.4,0.2-36.6c0.7-9.5-2.1-13.6-11.9-13.6c-11,0.1-21.9-0.6-32.9-1.2
			c-38.7-1.9-45.6,4.4-47.8,44c0,0.3,0.1,0.7,0,1c-7.6,24.9-12.7,51-23.6,74.4c-12.4,26.9-13.6,42.1,4.9,64.4
			c6,7.2,11.6,14.6,18.3,21.1c3.8,3.7,9.4,8.1,14.1,8c22.5-0.7,45.5-0.5,67.4-5c23.7-4.9,47.3-12.6,69.4-22.7
			c28-12.8,56.8-26,80.9-44.8C1411.6,165.1,1431.1,133,1430.4,92.4z M1234.5,1122.3c-0.3-1.1-0.5-2.2-0.8-3.3
			c-32.5,5.4-64.9,11.9-97.6,16c-42.4,5.3-80.1,21.4-115.4,44.5c-30.4,19.9-49.4,59-39.9,90.8c6.2,21,17,41,27.5,60.4
			c6.3,11.6,17.9,18.3,31.2,11.3c15.8-8.3,31.6-17.3,45.5-28.3c40.5-32.1,80.9-63.6,128.5-85.4c32.3-14.8,64.6-26.7,100.5-26.8
			c6.6,0,13.3-0.9,19.8-2.1c14-2.8,26.4-16.7,28.4-30.1c2.2-15.4-6.4-24.9-18.4-29.7c-15.2-6.2-31.4-11-47.7-13.4
			C1275.8,1123.3,1255.1,1123.5,1234.5,1122.3z M837.7,125.3c0.6,45.2,37.7,91.6,80.9,106.5c23.1,8,45.8,17,69.2,24
			c7.9,2.4,20.4,3.3,25.4-1.1c30.3-26.5,65.6-47.8,79.2-90.6c10.6-33.5,24.6-65.6,26.5-101.3c0.6-10.7-3.9-15.7-14.4-15.3
			c-18.6,0.6-37.3,0.9-55.8,2.6c-4.7,0.4-10.7,4.5-13,8.6c-15.1,26.4-30.9,51.6-57.3,68.8c-17.9,11.7-32.1,10.9-46.6-4.5
			c-13-13.8-15.1-30.1-15.9-47.9c-0.2-5.6-6.6-15.6-9.8-15.5c-15.1,0.6-30.3,3.7-45.2,6.8c-3.3,0.7-7.6,4.3-8.6,7.5
			C846.5,92.5,841.6,111.4,837.7,125.3z M1766.6,509.3c-2-4.7-3.3-17-10.1-22.2c-15.8-12.1-44.4,1.8-46.1,21.6
			c-2.2,25.5-1.3,51.3-4.5,76.6c-3.7,29.4-9.9,58.6-16.2,87.7c-3.4,15.6-9.5,30.5-13.4,46c-0.9,3.6,2.1,8.3,3.4,12.4
			c4.3-1.7,9.7-2.3,12.6-5.3c34.6-35.6,51.1-81.2,64.1-127.3C1763.9,572,1763.1,542.9,1766.6,509.3z M1346.2,521.5
			c0,0.7,0,1.4,0,2.2c-9,0-18,0.2-26.9-0.1c-15.5-0.5-22.4,8.4-24,22.3c-1.3,11.5-2,23.2-2.1,34.8c-0.2,18.8,2.4,37,13.9,52.9
			c12.1,16.6,40.1,15.8,49.7-2.1c6.2-11.7,10.8-24.2,17.3-35.8c11.2-20.2,23.4-39.9,34.9-60c1.8-3.1,3.4-7.7,2.4-10.6
			c-0.7-2-6-3.4-9.3-3.5C1383.4,521.3,1364.8,521.5,1346.2,521.5z M1255.4,573c1.7-0.3,3.4-0.6,5-1c0-10.7,0-21.3,0-32
			c0-7.9,0.5-15.7-10.9-16.4c-11.8-0.7-14.3,6.8-14.5,15.7c-0.5,21,0,42-0.6,62.9c-0.8,25.4,7.3,48.6,17.1,71.1
			c8.7,19.9,25.4,33.2,45.2,41.5c5.8,2.4,16.7,3.1,19.7-0.4c6.6-7.5,10.2-18,13.7-27.7c0.6-1.6-5.2-7.5-8.7-8.1
			c-24.5-4.5-43.2-17.1-50.8-40.9C1263.7,616.8,1260.3,594.7,1255.4,573z M1230.6,790.4c18.7,0,34.6-9.3,39.9-26.9
			c2.4-7.8,1.2-19.9-3.5-26c-7.7-9.9-19.6-16.6-29.9-24.4c-7.1-5.4-15.2-6.8-19,2.8c-6,15.1-12.5,30.6-14.5,46.5
			C1200.9,783.8,1208.9,790.4,1230.6,790.4z M1181.1,644.7c9.3,0.4,20,0.1,20-14.8c0-13.6-0.1-27.2-1.7-40.6
			c-0.4-3.3-5.9-7.8-9.8-8.7c-12.3-2.8-20.8,4.6-29.7,12.2c-11.5,9.9-14.5,22.1-10.2,34.8C1154.3,640.2,1165.9,645.4,1181.1,644.7z
			 M948,74.1c3,6.4,6.1,18.3,8.9,18.2c7.4-0.2,14.9-5.3,21.9-9.1c2.7-1.5,4.8-4.6,6.4-7.4c4.1-7.1,7.7-14.4,11.6-21.7
			c-8.2-0.9-16.3-2.6-24.5-2.6C953,51.3,950.3,54.3,948,74.1z M249.3,401.8c3.1-0.5,7.8,0,10.8-2c5.1-3.4,11.8-7.9,12.8-12.9
			c0.8-4.3-4.5-11.1-8.8-14.7c-3.7-3-9.8-3.8-14.9-4.1c-12.9-0.7-28.2,8.9-26.7,17C225.1,399.2,236.8,400.8,249.3,401.8z
			 M1298.5,48.8c-6.6,3-17,4.5-18.2,8.8c-2.7,9.3-4.9,24.4,0.1,29.1c9,8.5,18.3-1.8,25.3-9.7c0.9-1,2.4-1.6,2.9-2.7
			c2.6-6,6.8-12.2,6.6-18.2C1315.1,53.6,1305.1,51.6,1298.5,48.8z M1085.1,269.8c8.8-4.6,15.7-8.3,22.7-12
			c-7.1-6-14.2-16.7-21.3-16.7c-7.4,0-14.8,10.3-22.2,16C1070.6,261,1077,264.9,1085.1,269.8z M1501.3,1202.8
			c3.6,7.1,6.6,12.9,9.5,18.6c4.5-6.3,12.3-12.6,12.5-19c0.2-6.8-7-13.8-10.9-20.7C1508.9,1188.3,1505.4,1194.9,1501.3,1202.8z"/>
		<path class="st0" d="M571.3,1033.2c1-49.8,24.2-95.5,73-124.2c37.2-21.9,78.5-27.1,120.4-10.3c3.9,1.6,8.3,2.7,12.6,2.9
			c44,1.2,92.4,51.1,104.4,90.2c16.8,55-18.2,132.6-66.2,162.6c-27.6,17.2-56.1,30.8-87.4,36.3c-37.9,6.6-70.4-10.3-100.2-32.5
			c-1.1-0.8-1.9-1.9-3-2.7C575.1,1118,574.2,1096.4,571.3,1033.2z"/>
		<path class="st0" d="M601,623.3c-59.1-0.3-98.2-25.9-127.1-69.2c-3-4.4-7.2-8.5-8.6-13.4c-1.9-6.7-4.8-17.3-1.6-20.4
			c6.1-5.8,16.4-10.9,24.5-10.4c23.7,1.6,47.2,5.7,70.7,9.7c40.4,6.8,80.7,14.3,121.1,21.2c15.4,2.6,31.3,2.9,46.2,7.1
			c7.6,2.1,15.1,9.6,19,16.6c1.4,2.5-6.9,13.1-12.8,16.4C689.8,604.8,644.7,621.4,601,623.3z M597.8,590.5
			c14.1-3.1,28.3-5.8,42.1-9.8c3.3-1,5.3-6.5,7.9-9.9c-3.7-1.6-7.3-4.2-11.2-4.7c-25.8-4-51.6-7.6-77.4-11.2
			c-9.5-1.3-19-2.7-28.6-3.3c-3.1-0.2-6.3,2.4-9.5,3.6c1.5,3.1,2.3,7,4.7,9C546.3,582,570.5,589.4,597.8,590.5z"/>
		<path class="st0" d="M491.7,738.5c-4,48.7-12.2,88.7-44.7,118.7c-23.9,22.1-58.9,30.6-92.8,13.2c-20.2-10.3-40.6-24.4-66.3-19.6
			c-4.6,0.9-10.4-4.8-15.7-7.5c2.8-4.8,4.7-10.7,8.7-14.1c13.3-11.1,27-11,43.4-3.6c19.9,8.9,41.4,15.3,62.9,19.5
			c28.6,5.6,48-15.8,54.7-37.9c8.2-26.9,19.3-54.3,12.5-83.8c-4.9-21.4-11.4-42.4-32.2-53.4c-8.6-4.6-20-3.6-29.7-6.4
			c-9.6-2.7-20.4-5-27.8-11c-9-7.3-4.3-17.8,7.5-19.9c38.7-6.9,101.5,25.3,108.4,66.2C483.4,714.4,489.1,729.2,491.7,738.5z"/>
		<path class="st0" d="M744.8,461.8c-4.1,4.9-6.9,10.4-11.3,12.6c-3.6,1.7-9.8,0.7-13.7-1.4c-18.8-10-36.6-21.7-59-23.5
			c-13.7-1.1-27.4-8.3-40.8-7.6c-42.4,2.2-84,8.9-121.4,31.9c-4.4,2.7-16.2-0.2-19.9-4.6c-6.7-7.8-2.3-15.7,6.8-21.1
			c51.7-30.5,107.4-38.1,166.4-31.4c31.4,3.5,57.6,17.9,83.9,33.1C739.2,451.9,741.1,456.8,744.8,461.8z"/>
		<path class="st0" d="M291.9,1049.8c-10.5-6.6-21.7-12.4-31.4-20.1c-16.6-13.1-30.8-29.8-48.8-40.3c-18.4-10.8-39.9-16.6-60.6-23.2
			c-10.8-3.4-21.5-5.1-18.8-20c2-10.5,15.7-17.9,27.4-12.1c26.2,12.7,53.2,24.9,76.5,41.8c22.9,16.6,41.7,38.7,62,58.7
			c2.1,2.1,3.6,6.6,2.9,9.4C300.7,1046.1,296.3,1047.2,291.9,1049.8z"/>
		<path class="st0" d="M1571.7,995c-22.3-1-45.3,1.3-66.6-3.8c-33.4-8.1-68.7-15.3-92.9-43.4c-14.5-16.9-25.3-35.3-26.4-59.5
			c-1.8-39.9,9.4-75.6,26.1-110.9c17.4-36.7,32.7-74.5,49.1-111.7c4.8-10.9,8.7-22.7,15.8-32c4.5-5.9,14.2-7.7,21.5-11.4
			c1.5,8.2,6.5,17.7,3.9,24.2c-12.8,32.5-27.2,64.3-41.7,96.1c-11.4,24.9-26.4,48.6-34.8,74.5c-6.6,20.6-6.1,43.7-7.8,65.8
			c-1.5,19.5,4.7,35.9,19.8,49.9c17.5,16.2,39.4,24.9,60.8,26.1c51.8,3,104,3.1,155.7-0.4c24.5-1.7,49-12.6,72.1-22.7
			c17.8-7.7,34.6-19.2,49.6-31.7c10.6-8.8,17.6-22.1,25.8-33.6c4.4-6.2,7.2-13.8,12.5-19c3.8-3.7,10.4-4.4,15.8-6.5
			c1.9,5.8,6.9,12.8,5.2,17.3c-5.2,13.8-10.3,29.3-20.3,39.2c-21.5,21.4-44.6,41.9-69.8,58.4c-16.5,10.8-37.9,14.3-57.3,20.7
			C1650.2,993.1,1611.3,996.1,1571.7,995z"/>
		<path class="st0" d="M292.9,140.8c0,35.9-46.7,68.7-75.2,52.8c-14.1-7.8-19.2-22.3-11.5-36.4c11.8-21.4,27.1-39.2,51.9-46.8
			C274.9,105.4,292.9,120.6,292.9,140.8z"/>
	</g>
</g>
</svg>