<svg version="1.1" xmlns="http://www.w3.org/2000/svg" xmlns:xlink="http://www.w3.org/1999/xlink" x="0px" y="0px"
                 viewBox="0 0 50 48.9" style="enable-background:new 0 0 50 48.9;" xml:space="preserve">
                <style type="text/css">
                    .st0{fill:#FFFFFF;}
                </style>
                <g>
                    <g>
                        <path class="st0" d="M41.9,48.8c-1,0-2,0.1-3.1,0.1c-0.3,0-0.6,0-0.9,0c-0.5,0-1.1,0-1.6,0c-1.1,0-2.1-0.4-3.1-0.9
                            c-0.1,0-0.2-0.1-0.3-0.2c-0.5-0.3-1-0.4-1.6-0.3c-0.3,0.1-0.6,0.1-0.9,0.2c-0.2,0-0.5,0.1-0.7,0.2c-0.5,0.2-1,0.3-1.5,0.4
                            c-0.6,0-1.1,0-1.7,0c-1,0-2.1,0-3.1,0c-0.8,0-1.7,0-2.5,0c-0.5,0-1.1,0-1.6,0c-0.4,0-0.8,0-1.3,0c-0.6,0-1.2,0-1.7,0.1
                            c-0.4,0-0.7,0-1.1,0c-0.8-0.1-1.6,0-2.4,0c-1,0-2,0-3,0c-0.6,0-1.1,0-1.6,0.3c-0.2,0.1-0.4,0.2-0.6,0.2c-1,0-2,0-3.1,0.1
                            c-0.5,0-0.9-0.1-1.3-0.4c-0.2-0.1-0.4-0.2-0.7-0.3C2,48.2,1.7,48,1.5,47.7c-0.1-0.2-0.3-0.4-0.4-0.6c-0.2-0.4-0.2-0.7,0-1.1
                            c0.3-0.4,0.5-0.9,0.4-1.5c0-0.3,0-0.5,0-0.8c0-0.3-0.1-0.6-0.3-0.9c-0.4-0.5-0.4-0.8-0.1-1.3c0.2-0.3,0.4-0.7,0.5-1.1
                            c0.2-0.8,0.9-1.3,1.7-1.3c0.2,0,0.3,0,0.5,0c0.2,0,0.3-0.1,0.4-0.2c0.1-0.1,0.2-0.2,0.2-0.4c0-0.2-0.1-0.2-0.3-0.2
                            c-0.2,0-0.4,0-0.7,0c-0.3,0-0.7,0.1-1,0.1c-0.3,0-0.6,0-0.8-0.3c-0.2-0.2-0.4-0.4-0.5-0.7C1,37.3,0.9,37,0.9,36.6
                            c0-0.9-0.1-1.7-0.1-2.6c0-0.3-0.1-0.6-0.2-0.8c-0.1-0.1-0.1-0.3-0.2-0.4c-0.1-0.2-0.1-0.5,0-0.7c0,0,0.1-0.1,0.1-0.1
                            c0.2-0.4,0.2-0.6,0-1c-0.2-0.2-0.4-0.5-0.4-0.8C0,29.7,0,29.1,0,28.6c0-0.3,0.2-0.5,0.4-0.7c0.2-0.2,0.4-0.4,0.6-0.6
                            c0.5-0.5,0.6-1.1,0.3-1.7c-0.1-0.2-0.2-0.4-0.3-0.6c-0.1-0.2-0.2-0.4-0.2-0.5c-0.1-0.4,0-0.7,0.3-1c0.4-0.4,0.6-0.8,0.7-1.3
                            c0.1-0.4,0.2-0.7,0.5-1.1c0.2-0.3,0.4-0.5,0.7-0.6c0.7-0.2,1.1-0.7,1.4-1.2c0.1-0.1,0.1-0.2,0.1-0.4c0.1-0.4-0.1-0.6-0.5-0.7
                            c-0.1,0-0.2,0-0.2,0c-0.4,0-0.6-0.2-0.8-0.5c-0.1-0.2-0.3-0.4-0.4-0.7c-0.1-0.2-0.2-0.5-0.2-0.8c0-0.2,0-0.5,0-0.7
                            c0-0.5-0.1-0.9-0.3-1.4c-0.2-0.3-0.2-0.7-0.1-1c0.1-0.5,0.3-1,0.4-1.4c0-0.1,0-0.2,0-0.4c0-0.5,0.2-0.9,0.4-1.3
                            C2.9,9.7,3,9.4,3,9.1c0-0.3,0.1-0.6,0.3-0.8c0.2-0.3,0.4-0.5,0.5-0.9C4,7.3,4.1,7.1,4.2,7c0.2-0.4,0.4-0.7,0.6-1.1
                            C5.1,5.4,5.4,5,5.9,4.8c0.5-0.2,0.9-0.6,1.3-1c0.5-0.7,1.3-1.1,2.1-1.4c0.3-0.2,0.7-0.3,1-0.5c0.3-0.2,0.6-0.3,1-0.3
                            c0.3,0,0.6-0.2,0.9-0.4c0.3-0.3,0.7-0.3,1.1-0.4c0.7,0,1.4-0.1,2.1-0.1c0.2,0,0.4-0.1,0.6-0.2c0.3-0.1,0.6-0.2,1-0.1
                            c0.7,0.1,1.5,0,2.2-0.2c0.5-0.1,1-0.2,1.4-0.2c2.4,0,4.9,0,7.3,0c0.2,0,0.4,0,0.6,0c0.1,0,0.3,0.1,0.4,0.1c0.5,0.1,1,0.2,1.4,0.2
                            c0.5,0,1,0.1,1.4,0.2c0.7,0.2,1.5,0.2,2.3,0.3c1.1,0.1,2.1,0,3.2-0.1c0.4,0,0.7,0,1.1,0c0.9,0.1,1.8,0.1,2.8,0c0.5,0,1.1,0,1.6,0
                            c0.3,0,0.5,0.1,0.8,0.2c0.4,0.2,0.9,0.3,1.4,0.3c0.6,0,1.2,0.2,1.8,0.5c0.5,0.3,0.9,0.6,1.1,1.1c0.4,0.6,0.7,1.3,1,1.9
                            C48.9,5.2,49,5.4,49,5.7c0.1,0.2,0.1,0.5,0.1,0.7c0,0.2,0,0.4,0,0.5C49,7.4,49,7.9,49.1,8.5c0.2,1.3,0.2,2.6,0.2,3.9
                            c0,0.5,0,1,0,1.5c0,0.2,0,0.5-0.1,0.7c0,0.3-0.1,0.6-0.1,0.9c0,0.6-0.1,1.2-0.4,1.8c-0.1,0.2-0.2,0.5-0.3,0.7
                            c-0.1,0.4-0.4,0.7-0.7,1c-0.1,0.1-0.2,0.2-0.3,0.3c-0.2,0.3-0.2,0.6,0.1,0.9c0.1,0.1,0.1,0.1,0.2,0.2c0.3,0.2,0.5,0.4,0.6,0.7
                            c0.1,0.3,0.3,0.5,0.5,0.7c0.2,0.3,0.4,0.5,0.4,0.8c0,0.2,0.1,0.3,0.1,0.5c0.4,0.8,0.5,1.7,0.7,2.5c0.2,1,0.1,2.1,0.1,3.1
                            c0,0.2,0,0.4,0,0.6c0,0.3-0.1,0.6-0.3,0.9c-0.5,0.6-0.6,1.2-0.6,1.9c0,0.4,0.1,0.7,0.3,1c0.2,0.3,0.3,0.7,0.3,1.1
                            c0,0.9,0,1.7,0.2,2.6c0.1,0.6,0.2,1.2,0.2,1.8c0,0.4,0,0.9,0,1.3c0,0.6,0,1.2,0,1.8c0,0.2-0.1,0.4-0.2,0.5c-0.2,0.3-0.2,0.6-0.1,1
                            c0.1,0.4,0,0.8-0.2,1.1c-0.2,0.2-0.3,0.5-0.3,0.8c-0.1,0.6-0.4,1.1-0.8,1.6c-0.2,0.2-0.4,0.3-0.6,0.5c-0.3,0.2-0.6,0.4-0.8,0.6
                            c-0.3,0.3-0.7,0.4-1.1,0.5c-0.2,0-0.3,0-0.5,0c-0.3,0-0.5,0.1-0.8,0.2c-0.3,0.2-0.6,0.3-1,0.3C43,48.9,42.4,48.9,41.9,48.8
                            C41.9,48.9,41.9,48.9,41.9,48.8z M28.6,15.7C28.6,15.7,28.6,15.7,28.6,15.7c0.3,0.1,0.5,0.1,0.8,0.1c0.5-0.1,0.6-0.3,0.6-0.8
                            c0-0.2-0.1-0.5-0.1-0.7c0-0.5,0-1,0.1-1.5c0-0.5,0-1-0.2-1.5c-0.3-0.8-0.3-1.6-0.1-2.4c0.2-0.8,0.2-1.6,0.2-2.4
                            c0-0.3,0.1-0.6,0.1-0.9c0.1-0.3,0.2-0.7,0.3-1c0.1-0.4,0.2-0.7,0.5-1C31,3.4,31.2,3.2,31.4,3c0.1-0.1,0.2-0.2,0.2-0.3
                            c0.2-0.4,0.1-0.8-0.3-0.9c-0.2-0.1-0.5-0.1-0.8-0.1c-0.9,0-1.8,0-2.8,0c-1.9,0-3.7,0-5.6,0c-0.8,0-1.6,0-2.4-0.1
                            c-0.6,0-1.2,0-1.7,0.1c-0.8,0.1-1.6,0.3-2.3,0.4c-0.9,0.2-1.7,0.4-2.6,0.4c-0.4,0-0.8,0.1-1.2,0.3c-0.3,0.1-0.5,0.2-0.8,0.3
                            c-0.3,0.1-0.6,0.2-0.9,0.4C9.8,3.5,9.5,3.7,9.2,3.8C8.6,4.2,7.9,4.5,7.3,5.1C7.1,5.3,6.9,5.6,6.7,5.8c-0.3,0.3-0.4,0.6-0.6,1
                            C6,7.1,5.8,7.3,5.7,7.6C5.3,8.2,5,8.8,4.7,9.4C4.6,9.5,4.6,9.6,4.6,9.7c-0.1,0.3-0.2,0.7-0.4,0.9c-0.2,0.3-0.3,0.6-0.3,0.9
                            c0,0.3,0,0.5,0.1,0.8C4,12.9,4,13.4,3.8,14c-0.1,0.2-0.1,0.4-0.1,0.6c0,0.5,0,1,0.1,1.5c0,0.6,0.4,1,1,1.1c0.4,0.1,0.8,0,1.2,0
                            c0.5,0,0.8-0.2,0.8-0.7c0-0.2,0.1-0.5,0.1-0.7c0.2-0.9,0.6-1.7,0.9-2.6c0,0,0,0,0,0C7.9,13.1,8,13,8.1,13c0.1,0,0.2,0.1,0.2,0.2
                            c0,0.2,0.1,0.3,0.1,0.5c0,0.5,0.1,1.1,0.2,1.6c0.1,0.4,0.3,0.8,0.4,1.2c0.2,0.4,0.5,0.6,0.9,0.7c0.6,0.1,1.2,0.1,1.7-0.4
                            c0.3-0.3,0.7-0.5,1.1-0.8c0.3-0.2,0.7-0.4,1-0.6c0.5-0.5,1-0.4,1.6,0c0.2,0.2,0.5,0.3,0.7,0.5c0.3,0.1,0.5,0.3,0.8,0.4
                            c0.3,0.2,0.5,0.3,0.9,0.3c0.7,0.1,1.4,0,2-0.6c0.1-0.1,0.3-0.2,0.4-0.4c0.6-0.6,1.7-0.8,2.5-0.2c0.4,0.3,0.8,0.5,1.2,0.7
                            c0.4,0.2,0.8,0.4,1.2,0.4c0.6,0,1.1,0,1.5-0.4c0.2-0.1,0.4-0.2,0.6-0.3C27.5,15.8,28.1,15.7,28.6,15.7z M17.9,47.3
                            C17.9,47.3,17.9,47.3,17.9,47.3c0.2,0,0.4,0,0.5,0c0.7,0,1.4-0.1,2.1-0.3c0.2-0.1,0.5-0.1,0.7-0.1c0.6,0,1.2,0,1.8,0
                            c0.4,0,0.8,0,1.1-0.2c0.4-0.3,0.8-0.6,1.1-0.9c0.6-0.6,0.6-1.2,0.1-1.8c-0.2-0.3-0.5-0.5-0.7-0.8c-0.2-0.2-0.3-0.4-0.4-0.7
                            c0-0.3-0.1-0.5-0.1-0.8c0-0.3,0.1-0.6,0.3-0.8c0.4-0.4,0.8-0.8,1.2-1.2c0.4-0.4,0.8-0.8,1.2-1.2c0.7-0.8,1.1-1.6,1-2.7
                            c0-0.4,0-0.8,0.1-1.1c0.2-0.9-0.6-1.7-1.3-1.9c-0.4-0.1-0.7-0.2-1.1-0.3c-0.4-0.2-0.9-0.2-1.3,0c-0.4,0.1-0.9,0.2-1.3,0.2
                            c-0.5,0-0.9,0.2-1.3,0.5c-0.2,0.2-0.3,0.3-0.5,0.5c-0.2,0.2-0.5,0.4-0.7,0.6c-0.3,0.2-0.6,0.4-0.7,0.8c-0.2,0.4-0.4,0.7-0.7,0.9
                            c-0.3,0.2-0.5,0.5-0.8,0.7c-0.3,0.3-0.5,0.5-0.8,0.8c-0.2,0.3-0.5,0.4-0.8,0.5c-0.2,0-0.3,0.1-0.5,0.2c-0.6,0.3-1.3,0.6-1.9,0.8
                            C14,39,13.6,39,13.2,39.1c-0.6,0.1-1.1,0.2-1.7,0.3c-0.2,0-0.4,0.1-0.6,0.1c-1.2,0-2.4,0.1-3.6,0.1c-0.2,0-0.4,0-0.6,0.1
                            c-0.7,0.2-1.4,0.3-2.2,0.5c-0.1,0-0.2,0.1-0.4,0.1c-0.3,0.1-0.7,0.3-1,0.4c-0.4,0.1-0.6,0.4-0.6,0.7c-0.1,0.7-0.1,1.4,0.3,2
                            c0,0,0,0.1,0.1,0.1c0.3,0.7,0.4,1.4-0.1,2c-0.1,0.2-0.2,0.4-0.2,0.6c-0.2,0.7,0.1,1.2,0.8,1.3c0.5,0.1,1.1,0.1,1.6,0.1
                            c0.8,0,1.6,0,2.4-0.1c0.4,0,0.8,0,1.2-0.2c0.4-0.1,0.8-0.1,1.2,0c0.4,0.1,0.8,0.1,1.2,0.1c0.4,0,0.8,0,1.2,0c0.3,0,0.5,0,0.8,0
                            c0.4,0,0.7-0.2,1.1-0.4c0.7-0.3,1.3-0.3,2,0.1c0.3,0.2,0.6,0.2,0.9,0.2C17.2,47.3,17.5,47.3,17.9,47.3z M45.6,6.9
                            C45.5,6.9,45.5,6.9,45.6,6.9c0,0.6-0.1,1.3-0.2,1.9c-0.1,0.3-0.2,0.6-0.3,0.9c-0.1,0.2-0.2,0.4-0.3,0.7c-0.2,0.4-0.4,0.8-0.7,1.1
                            c-0.4,0.3-0.7,0.6-1.1,0.9c-0.3,0.2-0.6,0.3-0.9,0.3c-0.5,0-0.9,0.1-1.4,0.2c-0.7,0.1-1.4,0.1-2.2,0c-0.4-0.1-0.9-0.1-1.3-0.2
                            c-0.2,0-0.4-0.1-0.6-0.2c-0.5-0.3-1-0.7-1.4-1.1c-0.5-0.4-0.7-1.1-1-1.6c-0.2-0.5-0.3-1-0.2-1.5c0.1-0.6,0.1-1.3,0-1.9
                            c-0.1-1,0-2,0.5-3c0.1-0.2,0.2-0.5,0.2-0.7c0-0.4-0.3-0.7-0.7-0.6c-0.2,0.1-0.4,0.2-0.5,0.3C33.2,2.7,33,2.8,32.8,3
                            c-0.4,0.3-0.8,0.6-1.1,1c-0.6,0.6-0.7,1.4-0.6,2.2c0.1,0.6,0.1,1.2,0.1,1.8c-0.1,1.1,0,2.1,0,3.2c0,1.3,0,2.6,0,3.8
                            c0,0.3,0,0.6-0.1,0.9c-0.1,0.6,0,1.2,0.4,1.8c0.1,0.1,0.1,0.2,0.2,0.3c0.1,0.2,0.3,0.3,0.5,0.3c0.2,0,0.3-0.2,0.4-0.4
                            c0.1-0.1,0.1-0.3,0.2-0.4c0.1-0.2,0.3-0.4,0.5-0.6c0.1-0.1,0.2-0.2,0.3-0.2c0.2-0.1,0.4,0,0.5,0.2c0,0.1,0.1,0.3,0.1,0.4
                            c-0.1,0.3-0.2,0.5-0.3,0.7c-0.1,0.2-0.2,0.4-0.3,0.6c-0.1,0.2-0.1,0.5-0.1,0.7c0.1,0.2,0.3,0.4,0.5,0.4c0.2,0,0.4-0.1,0.5-0.3
                            c0.1-0.2,0.1-0.3,0.1-0.5c0-0.3,0-0.5,0-0.8c0-0.3,0.1-0.5,0.3-0.7c0.1-0.1,0.3-0.2,0.4-0.2c0.4,0,0.7,0.3,0.6,0.7
                            c-0.1,0.4-0.2,0.7-0.2,1.1c0,0.2-0.1,0.4-0.1,0.6c0,0.3,0.3,0.4,0.6,0.3c0.1,0,0.2-0.1,0.2-0.2c0.3-0.2,0.4-0.5,0.4-0.9
                            c0-0.3,0-0.6,0-0.8c0-0.2,0.1-0.3,0.2-0.4c0.2-0.3,0.6-0.3,0.8,0c0.1,0.1,0.1,0.3,0.1,0.4c0.1,0.5-0.1,1-0.2,1.5
                            c0,0.1-0.1,0.3-0.1,0.4c0,0.1,0.1,0.3,0.2,0.3c0.2,0.1,0.3,0,0.4-0.1c0,0,0.1-0.1,0.1-0.1c0.3-0.5,0.5-1,0.6-1.5
                            c0-0.2,0-0.5,0.1-0.8c0-0.2,0.2-0.4,0.4-0.4c0.2,0,0.4,0.1,0.5,0.3c0,0.1,0.1,0.3,0.1,0.4c-0.1,0.5-0.2,1-0.2,1.5
                            c0,0.2-0.1,0.4-0.1,0.6c0,0.1,0,0.3,0.2,0.4c0.2,0.1,0.3,0,0.4-0.1c0.1-0.1,0.2-0.3,0.2-0.4c0.1-0.4,0.2-0.9,0.2-1.4
                            c0-0.3,0.1-0.6,0.3-0.9c0.2-0.3,0.6-0.4,0.9-0.1c0.1,0.1,0.2,0.2,0.2,0.2c0.2,0.3,0.2,0.5,0,0.8c-0.1,0.1-0.2,0.2-0.3,0.3
                            c-0.2,0.2-0.2,0.5-0.1,0.6c0.1,0.2,0.4,0.2,0.6,0.2c0.1,0,0.1,0,0.2-0.1c0.2-0.1,0.3-0.2,0.5-0.3c0.3-0.2,0.4-0.5,0.4-0.9
                            c0-0.2,0-0.3,0-0.5c0-0.3,0.1-0.5,0.4-0.6c0.2-0.1,0.5,0,0.6,0.3c0.1,0.1,0.1,0.2,0.1,0.3c0,0.2-0.1,0.5-0.1,0.7
                            c0,0.1-0.1,0.2-0.1,0.4c0,0.2,0.1,0.4,0.3,0.4c0.2,0.1,0.4,0,0.5-0.2c0.1-0.1,0.1-0.3,0.1-0.4c0.1-0.5,0.3-1,0.5-1.5
                            c0.1-0.2,0.3-0.3,0.4-0.2c0.1,0.1,0.2,0.2,0.2,0.4c0,0.1,0,0.2,0,0.3c0,0.1,0,0.2,0,0.3c0.1,0.2,0.2,0.3,0.4,0.2
                            c0.1-0.1,0.3-0.2,0.4-0.3c0.3-0.3,0.4-0.6,0.5-1c0.1-0.4,0.3-0.9,0.5-1.3c0.1-0.3,0.2-0.7,0.2-1c0-1.2-0.1-2.4-0.1-3.6
                            c0-1,0-1.9,0.1-2.9c0.1-0.5,0-0.9-0.2-1.4c-0.3-0.5-0.4-1-0.4-1.6c-0.1-1.3-0.9-2.2-2.1-2.8c-0.1-0.1-0.3-0.1-0.4-0.1
                            c-0.3,0-0.4,0.2-0.3,0.5c0,0.1,0.1,0.2,0.2,0.3c0.2,0.2,0.3,0.4,0.3,0.7c0,0.2,0,0.4,0,0.7C45.4,5.4,45.5,6.1,45.6,6.9z M48.9,39
                            C48.9,39,48.9,39,48.9,39c0-0.7,0-1.4,0-2.1c0-0.2,0-0.5,0-0.7c0-0.7-0.2-1.2-0.5-1.8c-0.2-0.3-0.5-0.4-0.8-0.1
                            c-0.1,0.1-0.2,0.2-0.3,0.3c-0.3,0.2-0.5,0.5-0.8,0.7C46.2,35.6,46,36,46,36.4c0,0.3-0.1,0.6-0.2,0.9c-0.2,0.4-0.3,0.7-0.5,1.1
                            c-0.1,0.3-0.3,0.7-0.5,0.9c-0.4,0.3-0.7,0.6-1.1,1c-0.4,0.3-0.8,0.4-1.2,0.4c-0.4,0-0.8,0-1.1,0.1c-0.2,0.1-0.5,0.1-0.7,0.1
                            c-0.7,0-1.5,0.1-2.2-0.2c-0.1,0-0.1,0-0.2,0c-0.5,0-0.9-0.2-1.3-0.5c-0.1-0.1-0.2-0.1-0.3-0.2c-1.1-0.7-1.8-1.8-1.9-3
                            c0-0.4-0.2-0.7-0.4-1c-0.5-0.5-1.2-0.9-1.8-1.3c0,0-0.1,0-0.1-0.1c-0.4-0.1-0.6,0.1-0.6,0.4c0,0.1,0,0.3,0,0.4c0,0.3,0,0.6,0,0.9
                            c-0.1,1-0.1,2.1,0,3.1c0.1,1.2,0.2,2.5,0.1,3.7c-0.1,1,0.2,1.8,0.6,2.7c0.1,0.1,0.1,0.2,0.2,0.3c0.1,0.1,0.3,0.2,0.4,0.2
                            c0.2,0,0.2-0.2,0.3-0.3c0-0.2,0-0.4,0-0.6c0-0.4,0.1-0.7,0.5-0.9c0.1,0,0.2-0.1,0.3-0.1c0.2-0.1,0.5-0.1,0.7,0.1
                            c0.2,0.2,0.1,0.5,0,0.7c-0.2,0.4-0.4,0.8-0.6,1.2c0,0.1-0.1,0.2-0.1,0.3c-0.1,0.3,0.1,0.5,0.4,0.6c0.3,0,0.6-0.1,0.7-0.4
                            c0.1-0.3,0.2-0.6,0.3-0.9c0.1-0.3,0.1-0.6,0.2-0.8c0.2-0.4,0.5-0.4,0.8,0c0.2,0.3,0.2,0.5,0.1,0.8c0,0.4-0.1,0.9-0.1,1.3
                            c0,0.2,0,0.3,0.2,0.4c0.2,0.1,0.3,0,0.4-0.1c0.1-0.1,0.1-0.1,0.2-0.2c0.1-0.2,0.2-0.4,0.3-0.7c0.1-0.3,0.1-0.7,0.2-1
                            c0.1-0.3,0.3-0.5,0.5-0.5c0.2,0,0.4,0.3,0.4,0.6c0,0.5,0,1-0.3,1.4c-0.1,0.1-0.1,0.3-0.1,0.5c0,0.2,0.1,0.3,0.3,0.4
                            c0.2,0,0.4,0,0.5-0.2c0.1-0.2,0.1-0.3,0.2-0.5c0.1-0.2,0.1-0.4,0.2-0.6c0.1-0.4,0.3-0.8,0.5-1.1c0.1-0.1,0.1-0.3,0.2-0.4
                            c0.1-0.1,0.2-0.2,0.4-0.1c0.1,0,0.2,0.2,0.3,0.3c0,0.1,0,0.3,0,0.4c0,0.3-0.1,0.6-0.1,0.8c0,0.2-0.1,0.5-0.1,0.7
                            c0,0.1-0.1,0.2-0.1,0.3c0,0.2,0,0.3,0.1,0.4c0.2,0.1,0.3,0.1,0.5,0c0.1-0.1,0.2-0.2,0.3-0.3c0.1-0.2,0.1-0.4,0.1-0.6
                            c0-0.2,0-0.5,0-0.8c0.1-0.3,0.1-0.6,0.2-0.9c0.1-0.2,0.2-0.3,0.4-0.3c0.2,0,0.3,0.2,0.4,0.4c0,0.1,0.1,0.1,0.1,0.2
                            c0,0.2,0,0.5,0,0.7c0,0.1-0.1,0.3,0,0.4c0,0.3,0.2,0.5,0.4,0.6c0.3,0.1,0.5-0.1,0.6-0.4c0.1-0.3,0.2-0.5,0.3-0.8
                            c0.1-0.3,0.1-0.5,0.2-0.8c0.1-0.2,0.2-0.4,0.4-0.5c0.4-0.1,0.8,0.2,0.8,0.7c0,0.2-0.1,0.4-0.1,0.6c0,0.1-0.1,0.2-0.1,0.4
                            c-0.1,0.3,0.1,0.5,0.3,0.5c0.2,0.1,0.5,0,0.6-0.3c0.1-0.2,0.1-0.4,0.1-0.6c0-0.2,0-0.5,0.1-0.7c0.1-0.3,0.2-0.6,0.4-0.8
                            c0.1-0.1,0.2-0.1,0.3-0.1c0.1,0,0.1,0.2,0.2,0.3c0,0.1,0,0.3,0,0.5c0,0.2,0,0.4,0.3,0.5c0.2,0.1,0.4,0,0.5-0.2c0,0,0,0,0,0
                            c0.3-0.5,0.6-1.1,0.7-1.8c0.1-0.3,0.1-0.7,0.3-1c0.1-0.4,0.2-0.7,0.2-1.1C48.9,41,48.9,40,48.9,39z M47.5,30.3
                            C47.5,30.3,47.4,30.3,47.5,30.3c0-0.7,0.1-1.4,0.2-2.1c0.1-0.4,0.1-0.7,0-1.1c-0.1-0.3,0-0.6,0.1-1c0.2-0.5,0.2-1,0.1-1.5
                            c-0.1-0.4-0.2-0.8-0.2-1.2c0-0.8-0.4-1.4-0.8-2c0-0.1-0.1-0.2-0.2-0.2c-0.4-0.2-0.8,0-0.9,0.4c0,0.1,0,0.3,0,0.4
                            c0,0.2,0.1,0.5,0.1,0.7c-0.1,0.7-0.3,1.4-0.8,1.9c-0.5,0.6-1.1,1.2-1.6,1.7c-0.6,0.5-1.1,1.1-1.6,1.7c-0.3,0.3-0.4,0.7-0.5,1.2
                            c0,0.2-0.1,0.5-0.2,0.7c-0.2,0.3-0.3,0.6-0.3,1c0,0.3,0,0.6-0.1,0.9c-0.1,0.4-0.4,0.6-0.8,0.5c-0.3-0.1-0.5-0.3-0.6-0.5
                            c-0.1-0.1-0.1-0.3-0.1-0.4c0-0.6-0.1-1.2-0.1-1.8c0-0.4-0.1-0.7-0.3-1c-0.1-0.3-0.3-0.5-0.4-0.8c-0.1-0.3-0.3-0.6-0.6-0.7
                            c-0.3-0.2-0.7-0.4-1-0.6c-0.3-0.1-0.6-0.3-0.7-0.6c-0.2-0.2-0.3-0.5-0.5-0.7c-0.1-0.2-0.2-0.5-0.3-0.8c-0.1-0.3-0.1-0.7-0.1-1
                            c0-0.5,0-1,0-1.5c0-0.5-0.2-0.7-0.7-0.7c-0.1,0-0.1,0-0.2,0c-1,0.1-1.5,0.6-2,1.4c-0.2,0.3-0.3,0.6-0.5,0.9
                            c-0.2,0.3-0.3,0.7-0.3,1.1c0,0.2,0,0.5,0,0.7c0,0.5,0.1,1-0.1,1.5c0,0.1,0,0.2-0.1,0.3c-0.1,1-0.1,2,0,2.9c0,0.6,0.2,1.1,0.2,1.7
                            c0.1,1.1,0.6,2,1.6,2.6c0.1,0,0.1,0.1,0.2,0.1c0.4,0.2,0.8,0.4,1.2,0.4c0.4,0,0.8,0.1,1.2,0.3c0.3,0.1,0.7,0.2,1,0.2
                            c0.6,0,1.2,0,1.8,0c0.3,0,0.7,0,1,0.1c0.5,0.1,1,0.1,1.4,0c0.5-0.1,1-0.1,1.5-0.3c0.6-0.2,1.2-0.3,1.8-0.3c0.6,0,1.1-0.2,1.6-0.5
                            c0.3-0.2,0.5-0.5,0.6-0.9c0-0.3,0.2-0.6,0.4-0.8c0.3-0.3,0.4-0.7,0.4-1.1C47.5,31,47.5,30.6,47.5,30.3z M30.5,20.6
                            c-0.3,0-0.6-0.1-0.8-0.4c-0.2-0.3-0.1-0.7,0.3-0.7c0.2,0,0.5,0,0.7,0c0.2,0,0.3,0,0.5-0.1c0.3-0.1,0.4-0.3,0.2-0.6
                            c0-0.1-0.1-0.1-0.1-0.2c-0.3-0.3-0.6-0.7-0.9-1c-0.3-0.3-0.6-0.6-1-0.8c-0.4-0.2-0.8-0.2-1.3,0c-0.4,0.2-0.9,0.4-1.4,0.5
                            c-0.4,0.1-0.7,0.4-0.8,0.8c-0.1,0.5-0.1,1-0.2,1.5c0,0.1,0,0.2,0,0.3c0.1,0.4,0,0.8-0.2,1.1c-0.3,0.4-0.6,0.9-0.8,1.3
                            c0,0.1-0.1,0.2-0.2,0.3c-0.2,0.4-0.6,0.8-1,1c-0.4,0.2-0.8,0.5-1.3,0.7c-0.7,0.4-1.4,0.6-2.2,0.7c-0.5,0-0.9,0.1-1.4,0.2
                            c-0.3,0-0.5,0.1-0.8,0.1c-0.9-0.1-1.8,0-2.7-0.2c-0.1,0-0.2,0-0.3,0c-0.1,0-0.2,0.1-0.2,0.2c0,0.1,0.1,0.2,0.2,0.2
                            c0.1,0,0.2,0.1,0.3,0.1c0.2,0,0.4,0,0.6,0c0.7,0,1.4-0.1,2-0.1c0.2,0,0.4,0,0.6,0c0.5,0,1,0.1,1.5,0.1c0.7,0,1.4-0.1,2-0.4
                            c0.3-0.2,0.7-0.3,1-0.4c1.1-0.4,1.9-1.1,2.5-2.1c0.2-0.3,0.4-0.6,0.6-1c0.1-0.1,0.2-0.3,0.3-0.4c0.2-0.2,0.5-0.3,0.8-0.3
                            c0.4,0,0.5,0.3,0.3,0.7c-0.1,0.2-0.3,0.4-0.5,0.6c-0.4,0.4-0.7,0.8-0.9,1.3c-0.2,0.4-0.5,0.7-0.8,1c-0.7,0.5-1.5,1-2.2,1.5
                            c-0.2,0.1-0.5,0.2-0.7,0.3c-0.5,0.1-1.1,0.1-1.6,0.2c-0.7,0.1-1.3,0.2-2,0.2c-0.3,0-0.6,0-0.8,0.1C17.4,27,16.8,27,16.2,27
                            c-0.5,0-0.9-0.1-1.3-0.3c-0.3-0.2-0.7-0.2-1,0c-0.4,0.2-0.8,0.4-1.2,0.7c-0.5,0.4-0.9,0.8-1.4,1.2c-0.2,0.2-0.3,0.4-0.3,0.6
                            c-0.1,0.6,0.1,1.1,0.5,1.5c0.2,0.2,0.4,0.3,0.6,0.5c0.3,0.2,0.6,0.3,1,0.4c0.4,0,0.7,0.1,1.1,0.1c0.3,0,0.6,0,0.9,0
                            c0.4,0,0.8-0.1,1.3-0.1c0.4,0,0.8-0.1,1.2-0.3c0.3-0.2,0.6-0.3,0.9-0.4c0.8-0.3,1.5-0.7,2.3-1c0.1,0,0.1-0.1,0.2-0.1
                            c0.4-0.3,1-0.5,1.5-0.5c0.6,0,1.3-0.1,1.9-0.2c0.2,0,0.5,0,0.8,0c0.9,0.1,1.8,0.2,2.7,0.2c0.4,0,0.8,0.1,1.1,0.4
                            c0.2,0.1,0.4,0.3,0.6,0.1c0.2-0.1,0.2-0.4,0.2-0.6c-0.1-0.7-0.1-1.3,0-2c0-0.4,0.1-0.7,0.3-1c0.3-0.4,0.4-0.8,0.4-1.2
                            c0-0.4,0.1-0.9,0.3-1.3c0.2-0.4,0.4-0.9,0.5-1.4c0.1-0.4,0.3-0.7,0.6-0.9c0.1-0.1,0.2-0.2,0.3-0.3c0.1-0.1,0.2-0.2,0.2-0.3
                            c0.1-0.2,0-0.4-0.2-0.5c-0.2,0-0.4,0-0.5,0C31.1,20.5,30.8,20.6,30.5,20.6z M28.7,46.8C28.7,46.8,28.7,46.8,28.7,46.8
                            c0.5,0,0.9,0,1.4,0c0.1,0,0.1,0,0.2,0c0.6-0.1,0.8-0.3,0.8-0.9c0-0.1,0-0.1,0-0.2c-0.1-0.6-0.2-1.2-0.4-1.7
                            c-0.1-0.2-0.2-0.5-0.2-0.7c0-0.7-0.1-1.4-0.1-2.1c0-0.6,0.1-1.3-0.1-1.9c-0.2-0.8-0.2-1.6-0.2-2.5c0-0.2,0-0.3,0.1-0.5
                            c0.1-0.4,0.1-0.8,0.2-1.2c0-0.3,0-0.6,0.1-0.9c0.1-0.5,0.1-0.9-0.2-1.2c-0.1-0.2-0.3-0.3-0.4-0.5c-0.2-0.2-0.3-0.4-0.4-0.6
                            c-0.2-0.4-0.5-0.7-0.9-0.8c-0.5-0.2-1-0.4-1.5-0.6c-0.3-0.1-0.6-0.2-0.9-0.2c-0.8,0-1.6,0-2.4,0c-0.3,0-0.5,0.1-0.8,0.2
                            c-0.3,0.2-0.6,0.2-0.9,0.2c-0.5,0-1,0.2-1.4,0.4c-0.2,0.1-0.3,0.2-0.5,0.3c-0.8,0.3-1.5,0.6-2.3,1c-0.4,0.2-0.7,0.3-1.1,0.5
                            c-0.2,0.1-0.4,0.2-0.6,0.2c-0.5,0.1-0.9,0.2-1.4,0.2c-0.8,0.1-1.5,0-2.1-0.4c-0.2-0.2-0.6-0.3-0.8-0.3c-0.5-0.1-1-0.2-1.4-0.5
                            c-0.6-0.4-1.2-0.4-1.9,0c-0.4,0.3-0.8,0.3-1.2,0.2c-0.2-0.1-0.5-0.2-0.7-0.3c-0.6-0.3-1.2-0.3-1.8,0.1c-0.4,0.2-0.7,0.3-1.1,0.2
                            c-0.2-0.1-0.5-0.1-0.7-0.1c-0.3,0-0.6,0-0.9,0.1c-0.1,0.1-0.2,0.2-0.2,0.4C1.7,32.9,1.9,33,2,33c0.1,0,0.3,0,0.4,0
                            c0.3,0,0.7,0,1,0C4,33,4.6,33,5.2,32.9c0.4,0,0.8,0,1.2,0c0.2,0,0.4,0,0.5,0c0.8,0,1.5,0,2.3,0c0.5,0,0.9,0.1,1.3,0.4
                            c0.3,0.2,0.6,0.4,1,0.4c0.4,0,0.7,0.1,1,0.3c0.2,0.1,0.4,0.2,0.6,0.3c0.5,0.2,1.1,0,1.6-0.2c0.5-0.2,0.9-0.3,1.4-0.4
                            c0.6-0.1,1.1-0.3,1.6-0.5c0.2-0.1,0.5-0.2,0.7-0.2c0.4-0.1,0.8-0.3,1.2-0.5c0.7-0.4,1.4-0.8,2.2-1.1c0.2-0.1,0.5-0.2,0.7-0.4
                            c0.2-0.2,0.4-0.3,0.7-0.3c0.7,0,1.3,0,2,0c0.8,0,1.5,0.2,2.2,0.6c0.5,0.3,0.9,0.7,1.4,1.1c0.7,0.5,0.9,1.3,0.8,2.1
                            c0,0.4-0.1,0.8-0.1,1.2c0,0.5-0.1,0.8-0.4,1.2c-0.1,0.2-0.2,0.4-0.3,0.5c-0.1,0.3-0.3,0.6-0.5,0.8c-0.7,0.7-1.5,1.4-2.2,2.1
                            c-0.7,0.7-0.7,1.8,0,2.4c0.2,0.2,0.4,0.4,0.7,0.6c0.2,0.2,0.4,0.4,0.4,0.7c0,0.5,0,0.9-0.3,1.3c-0.1,0.1-0.2,0.3-0.2,0.4
                            c-0.1,0.4,0,0.6,0.4,0.7c0.1,0,0.2,0,0.3,0C27.8,46.8,28.2,46.8,28.7,46.8z M18,22.5C18,22.5,18,22.5,18,22.5c0.5,0,1,0,1.5,0
                            c0.3,0,0.5-0.1,0.8-0.2c0.3-0.1,0.7-0.3,1-0.5c0.3-0.1,0.5-0.4,0.6-0.7c0.1-0.3,0.3-0.6,0.4-0.8c0.2-0.3,0.3-0.5,0.3-0.9
                            c0-0.7,0.1-1.4,0-2.2c-0.1-0.9-1.1-1.3-1.9-0.8c-0.1,0.1-0.2,0.2-0.3,0.3c-0.2,0.2-0.5,0.3-0.7,0.4c-0.3,0.2-0.7,0.3-1,0.4
                            c-0.4,0.2-0.9,0.2-1.3,0c-0.5-0.2-1-0.5-1.5-0.7c-1.2-0.7-1.9-0.5-2.6,0.4c-0.2,0.3-0.3,0.6-0.4,0.9c0,0.3,0,0.5,0,0.8
                            c0,0.3,0.1,0.6,0.3,0.9c0.1,0.2,0.3,0.4,0.4,0.6c0.6,1.1,1.6,1.7,2.8,1.9C16.9,22.5,17.5,22.5,18,22.5z M7.9,30.9
                            C7.9,30.9,7.9,30.9,7.9,30.9c0.3-0.1,0.7,0,1-0.1c0.8,0,1-0.3,1-1.1c0-0.3,0-0.7,0-1c0-0.4,0.2-0.7,0.5-1c0.2-0.2,0.5-0.4,0.7-0.5
                            c0.4-0.2,0.6-0.6,0.9-0.9c0.1-0.2,0.3-0.5,0.5-0.7c0.2-0.2,0.4-0.5,0.4-0.7c0-0.3,0-0.6,0-0.9c0-0.4-0.3-0.6-0.6-0.7
                            c-0.2,0-0.3-0.1-0.5-0.1c-0.5-0.2-1-0.2-1.4,0c-0.1,0-0.2,0.1-0.3,0.1c-0.8,0.2-1.5,0.9-1.7,1.8c-0.1,0.3-0.2,0.6-0.4,0.9
                            c-0.3,0.3-0.5,0.6-0.8,0.8c-0.4,0.4-0.9,0.8-1.4,1c-0.9,0.3-1.7,0.4-2.6,0c-0.5-0.2-0.9-0.1-1.2,0.3c-0.2,0.2-0.3,0.5-0.4,0.7
                            c-0.1,0.5-0.1,0.9,0,1.4c0.1,0.5,0.4,0.7,0.9,0.7c0.2,0,0.5,0,0.7,0c0.6,0,1.3,0,1.9,0c0.3,0,0.7,0,1,0
                            C6.7,30.9,7.3,30.9,7.9,30.9z M39.7,3C39.7,3,39.7,3,39.7,3c-0.4,0-0.7,0-1.1,0c-0.4,0-0.8,0.1-1.1,0.4c-0.2,0.2-0.3,0.3-0.5,0.5
                            c-0.4,0.4-0.6,0.8-0.6,1.3c0,0.4-0.1,0.7-0.3,1c-0.1,0.2-0.2,0.4-0.3,0.6c-0.1,0.1-0.1,0.3-0.1,0.4c0,0.3,0.1,0.5,0.4,0.3
                            c0.1-0.1,0.3-0.2,0.4-0.3c0.1-0.1,0.3-0.3,0.4-0.5c0.2-0.3,0.5-0.6,0.8-0.8c0.2-0.1,0.4-0.2,0.6-0.4c0.3-0.3,0.7-0.4,1.2-0.4
                            c0.9,0,1.9-0.1,2.8-0.1c0.2,0,0.5,0,0.6-0.3c0.1-0.3,0.1-0.5-0.1-0.7c0,0-0.1-0.1-0.1-0.1c-0.5-0.5-1-0.9-1.7-0.9
                            C40.6,3,40.1,3,39.7,3z M40.4,25.5c0.5,0.1,1-0.1,1.4-0.5c0.1-0.1,0.3-0.2,0.4-0.3c0.5-0.2,0.7-0.6,0.7-1.1c0-0.1,0-0.1,0-0.2
                            c0.1-0.6,0.2-1.2,0-1.8c-0.1-0.2-0.1-0.4-0.3-0.5c-0.1-0.2-0.4-0.2-0.5-0.1c-0.1,0.1-0.2,0.2-0.2,0.5c0,0.1,0.1,0.2,0.1,0.3
                            c0,0.1,0.1,0.2,0.1,0.4c0.1,0.5-0.1,0.9-0.5,1.2c-0.2,0.1-0.4,0.1-0.6,0.3c-0.5,0.3-0.9,0.2-1.3-0.2c-0.4-0.3-0.7-0.7-1.1-1
                            c-0.2-0.2-0.2-0.4-0.1-0.6c0.1-0.2,0.2-0.3,0.2-0.5c0.1-0.2-0.1-0.4-0.3-0.4c-0.1,0-0.2,0-0.3,0c-0.7,0.3-1.1,0.7-1.1,1.5
                            c0,0.2,0.1,0.5,0.2,0.7c0.1,0.3,0.3,0.5,0.4,0.8c0.2,0.3,0.4,0.6,0.8,0.8c0.2,0.1,0.3,0.2,0.5,0.3C39.4,25.4,39.9,25.6,40.4,25.5z
                            M11,38.3c0.3,0,0.7,0,1-0.2c0.4-0.3,0.9-0.4,1.4-0.4c0.1,0,0.2,0,0.3,0c0.4,0,0.7-0.1,1.1-0.4c0.4-0.2,0.7-0.5,1.1-0.7
                            c0.6-0.4,1.1-0.7,1.7-1.1c0.1-0.1,0.2-0.2,0.3-0.3c0.1-0.1,0.2-0.3,0.1-0.4c-0.1-0.2-0.3-0.2-0.4-0.1c-0.2,0-0.4,0.1-0.6,0.2
                            c-0.5,0.3-1.1,0.5-1.7,0.5c-0.9,0.1-1.7,0.2-2.6,0c-0.2,0-0.5,0-0.7,0c-0.5,0.1-0.7,0.4-0.6,0.8c0,0.2,0.1,0.4,0.1,0.5
                            c0.1,0.4-0.1,0.7-0.5,0.8c-0.2,0-0.4,0-0.6,0.1c-0.1,0-0.3,0.1-0.4,0.2c-0.1,0.1-0.1,0.2,0,0.2c0.1,0,0.2,0.1,0.3,0.1
                            C10.6,38.3,10.8,38.3,11,38.3z M8.2,17.7c-0.4,0-0.7,0.2-1,0.3C7,18.2,7,18.5,7.1,18.8c0.3,0.4,0.7,0.7,1.2,0.7
                            c0.4,0,0.9,0.1,1.3,0.1c0.4,0,0.7,0.2,0.9,0.7c0.1,0.2,0.2,0.5,0.2,0.7c0.1,0.4,0.3,0.6,0.7,0.8c0.2,0.1,0.5,0.3,0.7,0.4
                            c0.1,0.1,0.2,0.1,0.4,0.2c0.3,0.1,0.5-0.1,0.4-0.4c0-0.1-0.1-0.2-0.2-0.3c-0.2-0.3-0.5-0.5-0.7-0.8c-0.4-0.5-0.7-1-0.6-1.6
                            c0-0.1,0-0.2,0-0.3c0-0.2-0.2-0.4-0.4-0.4c-0.2,0-0.3,0-0.5,0c-0.2,0-0.3,0-0.5,0c-0.4-0.1-0.9-0.2-1.3-0.4
                            C8.5,17.8,8.3,17.7,8.2,17.7z M6.8,24.4c0-0.2,0-0.5-0.1-0.7c-0.1-0.6-0.3-0.8-0.8-0.9c-0.5-0.1-1-0.3-1.5-0.6
                            C4.2,22.1,4.1,22.1,4,22c-0.3-0.1-0.6,0-0.6,0.1c-0.1,0.2,0,0.5,0.3,0.6c0.3,0.2,0.5,0.3,0.8,0.4c0.2,0.1,0.4,0.1,0.6,0.2
                            c0.3,0.1,0.5,0.3,0.5,0.7c0,0.2,0,0.4,0,0.6c0.1,0.5-0.1,0.8-0.6,1c-0.3,0.1-0.6,0.2-0.8,0.3c-0.2,0.1-0.3,0.1-0.5,0.2
                            c-0.1,0.1-0.2,0.2-0.2,0.4c0,0.2,0.2,0.3,0.3,0.3c0.2,0,0.4,0,0.6-0.1c0.4-0.2,0.9-0.4,1.3-0.6C6.4,25.9,6.9,25.3,6.8,24.4z
                            M7.2,35.5C7.1,35.3,7.1,35,7,34.6c-0.1-0.3-0.4-0.6-0.7-0.6c-0.4,0-0.7,0.1-0.9,0.5c-0.1,0.2-0.2,0.5-0.2,0.7c0,0.3,0,0.6,0,0.9
                            c0,0.4,0.1,0.6,0.5,0.7C6.4,37.1,7.2,36.5,7.2,35.5z M3.8,35.6C3.8,35.6,3.8,35.6,3.8,35.6c0-0.2,0-0.3,0-0.5
                            c0-0.3-0.1-0.6-0.3-0.8c-0.3-0.3-0.8-0.3-1.1,0C2.2,34.5,2,34.6,2,34.8c-0.1,0.2-0.2,0.4-0.2,0.6c0,0.5,0.2,0.9,0.6,1.2
                            c0.5,0.4,1.2,0.2,1.4-0.4C3.8,36.1,3.8,35.8,3.8,35.6z M9.8,21.5c0-0.7-0.7-1.2-1.3-0.9c-0.5,0.3-0.9,0.7-1.1,1.3
                            c-0.2,0.5,0.2,1,0.7,0.9c0.5-0.1,0.9-0.3,1.3-0.6C9.6,22,9.8,21.8,9.8,21.5z M8.4,35.8c0,0.1,0,0.3,0,0.4c0,0.5,0.4,0.8,0.9,0.7
                            c0.5-0.1,1.1-0.9,1.1-1.3c0-0.4-0.1-0.6-0.4-0.8c-0.3-0.1-0.6-0.2-0.9-0.1c-0.5,0.1-0.7,0.4-0.7,0.9C8.4,35.6,8.4,35.7,8.4,35.8z
                            M19.7,24C19.7,24,19.7,24,19.7,24c0.3,0,0.5,0,0.8-0.1c0.1,0,0.3-0.2,0.2-0.3c0-0.2-0.2-0.2-0.3-0.2c-0.2,0-0.5,0-0.7,0
                            c-0.5,0.1-1,0.2-1.5,0.2c-0.6,0-1.3,0-1.9,0.1c-0.1,0-0.2,0-0.3,0c-0.5-0.2-1.1-0.3-1.6-0.6c-0.1-0.1-0.2-0.1-0.3-0.1
                            c-0.2,0-0.4,0.1-0.3,0.4c0,0.1,0.1,0.2,0.2,0.3c0.4,0.4,0.9,0.4,1.5,0.4c0.4,0,0.9-0.1,1.3-0.1C17.8,23.9,18.8,23.9,19.7,24z
                            M24.2,20.3C24.2,20.3,24.2,20.3,24.2,20.3c0-0.1,0-0.2-0.1-0.3C24.1,20,24,19.9,24,19.8c-0.1-0.1-0.2,0-0.3,0.2
                            c0,0.1-0.1,0.1-0.1,0.2c0,0.2-0.1,0.3-0.1,0.5c-0.1,0.4-0.2,0.7-0.5,0.9c-0.4,0.3-0.7,0.6-1.1,0.9c-0.1,0.1-0.2,0.2-0.3,0.3
                            c-0.1,0.2,0,0.4,0.2,0.4c0.1,0,0.3-0.1,0.4-0.1c0.9-0.4,1.4-1.1,1.8-2C24.1,20.9,24.2,20.6,24.2,20.3z M6.1,19.6
                            c-0.4,0-0.7,0.2-1,0.4c-0.3,0.2-0.4,0.5-0.3,0.7c0.1,0.3,0.4,0.5,0.7,0.5c0.1,0,0.2,0,0.3,0c0.4-0.1,0.7-0.3,0.9-0.5
                            c0.2-0.2,0.3-0.5,0.1-0.7C6.7,19.7,6.4,19.6,6.1,19.6z M42.9,2.1c-0.3,0-0.5,0.2-0.3,0.5c0.1,0.1,0.2,0.2,0.2,0.3
                            c0.2,0.2,0.4,0.3,0.6,0.5c0.2,0.2,0.3,0.3,0.4,0.6c0,0.1,0.1,0.3,0.1,0.4c0,0.1,0.2,0.2,0.2,0.1c0.1,0,0.2-0.1,0.2-0.2
                            c0.1-0.2,0-0.4-0.1-0.6C44.2,3.5,44,3.3,43.9,3c-0.1-0.2-0.2-0.4-0.3-0.6C43.4,2.3,43.2,2.2,42.9,2.1z M3.1,24.9
                            C3.1,24.9,3.1,24.9,3.1,24.9c0.2,0,0.4,0,0.5,0c0.2,0,0.3,0,0.5-0.1c0.2-0.1,0.2-0.4,0-0.5c-0.1,0-0.2-0.1-0.4-0.1
                            c-0.4,0-0.8,0-1.2,0c-0.1,0-0.3,0-0.4,0.1c-0.2,0.1-0.3,0.4-0.1,0.5c0.1,0.1,0.2,0.1,0.4,0.2C2.6,24.9,2.8,24.9,3.1,24.9z
                            M36.6,2.3c-0.4,0-1,0.6-1,0.9c0,0.1,0,0.3,0.1,0.3c0.1,0.1,0.2,0,0.3,0c0.1,0,0.2-0.1,0.2-0.2c0.2-0.1,0.3-0.3,0.4-0.5
                            c0.1-0.1,0.1-0.2,0.2-0.3C37,2.4,36.9,2.3,36.6,2.3z M7.7,38.4c0.3-0.1,0.7-0.1,1-0.2c0.1,0,0.1-0.1,0.2-0.1C8.8,38,8.8,38,8.7,38
                            c-0.3-0.1-0.6-0.1-0.9-0.1c-0.2,0-0.3,0-0.5,0.1c-0.2,0.1-0.2,0.3,0,0.4C7.5,38.4,7.6,38.4,7.7,38.4z M24.1,18.7
                            c0,0.1,0,0.2,0.1,0.3c0.1,0.2,0.3,0.3,0.5,0.1c0.2-0.2,0.2-0.4,0.1-0.7c0-0.1-0.1-0.2-0.3-0.2c-0.1,0-0.2,0.1-0.3,0.1
                            C24.2,18.4,24.2,18.6,24.1,18.7z M43.3,39.1c0.3,0,0.8-0.4,0.9-0.7c0-0.1,0-0.2-0.1-0.2c0,0-0.2,0-0.2,0c-0.3,0.2-0.5,0.4-0.6,0.8
                            C43.2,39,43.3,39.1,43.3,39.1z M36.9,39.2c0.1,0,0.2-0.1,0.1-0.2c-0.1-0.3-0.3-0.6-0.6-0.7c-0.2,0-0.2,0-0.2,0.2
                            C36.2,38.9,36.6,39.2,36.9,39.2z M43.3,10.2c-0.2,0-0.4,0.2-0.4,0.4c0,0.2,0.1,0.2,0.2,0.2c0.2,0,0.4-0.2,0.4-0.4
                            C43.6,10.3,43.5,10.2,43.3,10.2z M35.3,4.7c0-0.1,0-0.1,0-0.2c0-0.1-0.1-0.2-0.1-0.2c-0.1,0-0.2,0.1-0.2,0.1
                            c-0.1,0.2-0.1,0.3,0,0.5c0,0.1,0.1,0.1,0.1,0.1c0,0,0.1-0.1,0.1-0.1C35.3,4.9,35.3,4.8,35.3,4.7z M37.2,39.3
                            c0.1,0.3,0.4,0.4,0.6,0.4c0.1,0,0.2-0.1,0.2-0.1c0,0,0-0.1-0.1-0.2C37.7,39.3,37.5,39.3,37.2,39.3z M37,11.3
                            c-0.1,0.1-0.2,0.1-0.3,0.2c0.1,0.1,0.1,0.2,0.2,0.2c0.1,0.1,0.3,0.1,0.4,0c0,0,0.1-0.1,0.1-0.2C37.2,11.5,37.1,11.4,37,11.3z
                            M36.2,10.9c0-0.2-0.1-0.4-0.3-0.4c-0.1,0-0.2,0.1-0.2,0.2c0,0.1,0.2,0.3,0.3,0.3C36.1,11,36.2,10.9,36.2,10.9z M40.4,28.4
                            c0.1,0,0.2-0.1,0.2-0.2c0-0.1-0.1-0.2-0.2-0.2c-0.1,0-0.2,0.1-0.2,0.2C40.2,28.3,40.3,28.4,40.4,28.4z M35.3,9
                            C35.3,9,35.3,9,35.3,9C35.3,8.9,35.3,8.9,35.3,9c-0.1-0.1-0.1-0.2-0.1-0.3c0,0.1-0.1,0.1-0.1,0.2c0,0,0,0,0,0.1
                            c0,0.1,0,0.2,0.1,0.2C35.2,9.2,35.3,9,35.3,9z M36.1,37.5c0-0.1-0.1-0.2-0.1-0.2c0,0-0.1,0-0.1,0c0,0.1,0,0.2,0,0.3
                            c0,0.1,0.1,0.1,0.1,0.2C36,37.6,36,37.6,36.1,37.5z M45,36.5c0,0.1-0.1,0.1-0.1,0.1c0,0,0.1,0.1,0.1,0.1c0,0,0.1-0.1,0.1-0.1
                            C45.1,36.6,45,36.5,45,36.5z M44.1,8.9c0.1-0.1,0.1-0.1,0-0.2C44.1,8.8,44.1,8.9,44.1,8.9z"/>
                        <path class="st0" d="M7.2,41.6c-0.6-0.1-1.1,0.1-1.6,0.3c-0.5,0.2-1,0.2-1.5,0.3c-0.1,0-0.2,0-0.3-0.1c-0.2-0.1-0.3-0.4-0.1-0.6
                            c0,0,0.1-0.1,0.1-0.1c0.6-0.4,1.1-0.7,1.9-0.8c1.1-0.1,2.1-0.2,3.2-0.3c0.2,0,0.5,0,0.7,0c0.4,0,0.7,0,1.1-0.2
                            c0.3-0.2,0.7-0.2,1-0.2c0.6,0,1.1-0.1,1.7-0.1c0.5,0,0.9-0.1,1.4-0.4c0.5-0.3,1.1-0.3,1.7-0.4c0.4,0,0.8-0.2,1.2-0.5
                            c0.7-0.5,1.2-1.1,1.8-1.7c0.8-0.9,1.7-1.8,2.5-2.7c0.6-0.7,1.4-1.1,2.4-1.2c0.2,0,0.4,0,0.6-0.1c0.5,0,0.9,0.1,1.2,0.4
                            c0.2,0.2,0.4,0.4,0.5,0.6c0.2,0.2,0.3,0.5,0.5,0.8c0.4,0.7,0.4,1.4,0,2.1c-0.3,0.5-0.5,0.9-1,1.2c-0.2,0.1-0.4,0.2-0.6,0.1
                            c-0.2-0.1-0.2-0.4-0.1-0.6c0.1-0.2,0.1-0.4,0.2-0.6c0.2-0.5,0.3-1.1,0.3-1.6c0-0.5-0.3-0.6-0.7-0.7c-0.4,0-0.8,0-1.2-0.1
                            c-0.3,0-0.6,0-0.9,0.3c-0.1,0.1-0.3,0.2-0.4,0.4c-0.7,0.8-1.4,1.5-2.1,2.3c-0.2,0.2-0.4,0.4-0.6,0.6c-0.4,0.4-0.9,0.8-1.3,1.2
                            c-0.3,0.3-0.6,0.4-1,0.6c-0.4,0.1-0.8,0.3-1.1,0.5c-0.3,0.2-0.6,0.2-1,0.3c-0.9,0.1-1.8,0.2-2.8,0.3c-0.4,0.1-0.8,0.2-1.3,0.3
                            c-0.7,0.1-1.4,0.2-2.2,0.2C8.5,41.5,7.9,41.6,7.2,41.6z"/>
                        <path class="st0" d="M44.2,14.9c0,0.2-0.2,0.5-0.4,0.5c-0.2,0.1-0.4,0-0.5-0.2c0,0,0-0.1-0.1-0.1c-0.1-0.2-0.1-0.5,0-0.6
                            c0.1-0.1,0.4-0.2,0.6-0.1C44,14.5,44.2,14.7,44.2,14.9z"/>
                        <path class="st0" d="M35.3,15c0.1-0.2,0.1-0.3,0.2-0.5c0.2-0.2,0.5-0.2,0.6,0c0.2,0.3,0.1,0.8-0.2,1c-0.2,0.1-0.4,0.1-0.5-0.1
                            C35.4,15.3,35.3,15.1,35.3,15z"/>
                        <path class="st0" d="M41.6,15.8c-0.3,0-0.5-0.1-0.5-0.3c0-0.2,0.2-0.4,0.4-0.4c0.2,0,0.4,0,0.5,0.2c0.1,0.1,0.1,0.2,0,0.3
                            C42,15.7,41.8,15.8,41.6,15.8z"/>
                        <path class="st0" d="M46,14.2c0,0.1,0,0.2-0.1,0.3c-0.1,0.2-0.3,0.2-0.5,0.1c-0.1-0.2-0.2-0.4-0.2-0.6c0-0.1,0.1-0.2,0.2-0.3
                            c0.1-0.1,0.3,0,0.3,0.1C45.9,13.9,46,14,46,14.2z"/>
                        <path class="st0" d="M34.1,14.6c0,0.2-0.2,0.4-0.4,0.4c-0.2,0-0.4-0.2-0.4-0.4c0-0.2,0.2-0.4,0.4-0.4
                            C33.9,14.2,34.1,14.4,34.1,14.6z"/>
                        <path class="st0" d="M37.8,15.1c0.2,0,0.3,0.1,0.4,0.2c0,0.1-0.1,0.3-0.2,0.4c-0.2,0.1-0.4,0.1-0.5-0.1c0-0.1-0.1-0.2-0.1-0.3
                            C37.4,15.2,37.7,15.1,37.8,15.1z"/>
                        <path class="st0" d="M39.3,15.4c0-0.2,0.2-0.4,0.4-0.4c0.2,0,0.3,0.2,0.3,0.4c0,0.2-0.2,0.4-0.4,0.4
                            C39.4,15.8,39.3,15.6,39.3,15.4z"/>
                        <path class="st0" d="M36.8,42.9c0,0.3-0.2,0.6-0.6,0.6c-0.3,0-0.6-0.2-0.6-0.5c0-0.2,0.1-0.3,0.1-0.5c0.2-0.4,0.6-0.4,0.8,0
                            C36.7,42.6,36.7,42.8,36.8,42.9z"/>
                        <path class="st0" d="M43.8,42.8c0.1-0.1,0.1-0.3,0.2-0.4c0.1-0.1,0.2-0.2,0.4-0.2c0.2,0,0.2,0.1,0.3,0.3c0.1,0.2,0,0.7-0.2,0.9
                            c-0.1,0.1-0.3,0.1-0.4-0.1C43.9,43.2,43.8,43,43.8,42.8z"/>
                        <path class="st0" d="M46.8,42c0,0.1-0.1,0.2-0.1,0.3c-0.1,0.2-0.4,0.3-0.5,0.1c-0.1-0.1-0.2-0.3-0.2-0.4c0-0.2,0.1-0.4,0.3-0.4
                            c0.2-0.1,0.3,0,0.4,0.2C46.7,41.8,46.7,41.9,46.8,42z"/>
                        <path class="st0" d="M42.6,43.3c0,0.2-0.3,0.5-0.5,0.5c-0.2,0-0.4-0.2-0.4-0.4c0-0.2,0.2-0.4,0.5-0.4
                            C42.4,42.9,42.6,43.1,42.6,43.3z"/>
                        <path class="st0" d="M34.8,42.5c0,0.2-0.2,0.5-0.4,0.5c-0.2,0-0.4-0.2-0.4-0.4c0-0.3,0.2-0.5,0.4-0.5
                            C34.6,42.1,34.8,42.3,34.8,42.5z"/>
                        <path class="st0" d="M40.7,43.3c0,0.2-0.2,0.4-0.4,0.4c-0.2,0-0.3-0.2-0.3-0.4c0-0.2,0.2-0.4,0.4-0.4C40.6,43,40.7,43.1,40.7,43.3
                            z"/>
                        <path class="st0" d="M38.3,43.7c-0.2,0-0.3-0.1-0.4-0.3c0-0.2,0-0.3,0.2-0.4c0.1-0.1,0.3-0.1,0.4-0.1c0.2,0.1,0.3,0.3,0.1,0.5
                            C38.6,43.6,38.4,43.6,38.3,43.7z"/>
                        <path class="st0" d="M44.8,31.7c-0.2,0-0.4-0.1-0.6-0.1c-0.6-0.2-1-0.6-1.1-1.3c0-0.3,0-0.6,0-1c0-0.3,0.2-0.6,0.5-0.7
                            c0.9-0.4,1.8-0.4,2.6,0.2c0.1,0.1,0.3,0.2,0.4,0.4c0.3,0.4,0.3,0.8,0.1,1.2c-0.1,0.2-0.2,0.4-0.3,0.6c-0.1,0.3-0.3,0.5-0.7,0.5
                            C45.3,31.6,45,31.7,44.8,31.7z M44.8,30.3c0.2,0,0.4-0.1,0.4-0.4c0-0.2-0.2-0.4-0.4-0.4c-0.2,0-0.4,0.1-0.4,0.3
                            C44.3,30.1,44.5,30.3,44.8,30.3z"/>
                        <path class="st0" d="M35.2,27.8c0.7,0,1.2,0.4,1.7,1c0.1,0.2,0.2,0.4,0.2,0.6c0,0.2,0,0.4,0,0.6c0,0.4-0.3,0.7-0.7,0.9
                            c-0.2,0.1-0.5,0.2-0.7,0.3c-0.3,0.1-0.5,0.1-0.8,0c-0.4-0.2-0.7-0.6-0.9-1c-0.1-0.3-0.2-0.5-0.1-0.8c0-0.2,0.1-0.4,0.1-0.7
                            C34.1,28,34.4,27.8,35.2,27.8z M35.6,29.5c0-0.3-0.2-0.5-0.4-0.5c-0.2,0-0.4,0.1-0.4,0.4c0,0.3,0.2,0.5,0.4,0.5
                            C35.5,29.9,35.6,29.8,35.6,29.5z"/>
                    </g>
                </g>
            </svg>